<svg id="Layer_1" xmlns="http://www.w3.org/2000/svg" viewBox="0 0 1209 556">
  <style>
    .st0{fill:#7dcde2}.st1{fill:#e2e8e8}.st2{fill:#f0fcfc}.st3{fill:#d6d8d8}.st9{fill:#ef6aac}.st12{fill:#c6c4bd}.st17{fill:#fff}
  </style>
  <g id="peanuts_1">
    <path class="st0" d="M1125 333.4c5.8 9.9 17.9 18.9 19.5 7.1.8-5.7-3.3-11.5-5.7-12 2-10.2 8.9-5.1 11.5-1.2 5.2 7.5 10.3 19.6 24.7 18.6 13.1-.9 26-14.8 16.3-38.5-3.3-8-20.1-22.8-25.3-25.1-3.6-1.6-8.6 8.1.1 18.1 5.9 6.8 5.1 12.4-1.5 8.3-8.9-5.5-11.1-23.6-36.5-13-17 7.1-8.6 28.2-3.1 37.7z"/>
    <path class="st0" d="M1119.4 303l16.8-21.5 15.6 4.7 20.1 15.6 5.4 9.5-19.5 14.3-14.3 18.3-11.7-28.2 57 23.6 16.6-21.4-10.8-22-17.9-29.9-14.3 18.3z"/>
    <path class="st1" d="M1139.3 315.1c5.8 9.9 17.9 18.9 19.5 7.1.8-5.7-3.3-11.5-5.7-12 2-10.2 7.9-3.8 10.5.1 5.2 7.5 11.3 18.2 25.7 17.3 13.1-.9 26-14.8 16.3-38.5-3.3-8-20.1-22.8-25.3-25.1-3.6-1.6-8.6 8.1.1 18.1 5.9 6.8 5.1 12.4-1.5 8.3-8.9-5.5-11.1-23.6-36.5-13-17.1 7-8.7 28.2-3.1 37.7z"/>
    <path class="st0" d="M.1 322.6c-.7 10.1 3.7 22.8 10.8 14.9 3.4-3.8 3.3-10.1 1.8-11.6 6.5-6.5 9 .7 9.1 4.8 0 8.1-2.2 19.5 8.8 25.9 10 5.9 26.4 2.1 31.2-20.1 1.6-7.5-3.4-26.7-6-31-1.9-3-10.3 1.7-9 13.3.9 7.9-2.4 11.6-5.3 5.3-3.8-8.4 3.6-22.8-20.3-27.7C5.1 293.1.8 312.8.1 322.6z"/>
    <path class="st0" d="M11.1 297.5l23.1-7.5 9 11.3 7 21.4-.8 9.7-21.4.7-19.6 6.4 5.5-26.5 30 45.6 22.8-7.4 3.1-21.5 1.8-30.9-19.6 6.4z"/>
    <path class="st2" d="M19.7 316.2c-.7 10.1 3.7 22.8 10.8 14.9 3.4-3.8 3.3-10.1 1.8-11.6 6.5-6.5 7.6 1.1 7.7 5.3 0 8.1-.8 19 10.2 25.5 10 5.9 26.4 2.1 31.2-20.1 1.6-7.5-3.4-26.7-6-31-1.9-3-10.3 1.7-9 13.3.9 7.9-2.4 11.6-5.3 5.3-3.8-8.4 3.6-22.8-20.3-27.7-16.1-3.3-20.5 16.4-21.1 26.1z"/>
    <path class="st0" d="M1038 294.7c0 10.3 5.3 22.8 11.9 14.3 3.2-4.1 2.6-10.4 1.1-11.9 6.2-7 9.2.1 9.5 4.3.6 8.2-.9 19.9 10.7 25.6 10.6 5.3 26.9.3 30.2-22.5 1.1-7.7-5.3-26.8-8.2-30.9-2.1-2.9-10.4 2.4-8.2 14.1 1.5 8-1.7 11.9-5 5.7-4.4-8.3 2.1-23.3-22.4-26.6-16.5-2.2-19.6 18-19.6 27.9z"/>
    <path class="st0" d="M1047.5 268.6l22.7-9.1 10 10.7 8.6 21.3-.2 9.8-21.6 2.2-19.4 7.8 3.7-27.2 33.5 44.1 22.6-9.1 1.7-21.9-.4-31.4-19.4 7.8z"/>
    <path class="st3" d="M1057.4 286.9c0 10.3 5.3 22.8 11.9 14.3 3.2-4.1 2.6-10.4 1.1-11.9 6.2-7 7.8.6 8.1 4.8.6 8.2.5 19.3 12.1 25.1 10.6 5.3 26.9.3 30.2-22.5 1.1-7.7-5.3-26.8-8.2-30.9-2.1-2.9-10.4 2.4-8.2 14.1 1.5 8-1.7 11.9-5 5.7-4.4-8.3 2.1-23.3-22.4-26.6-16.5-2.2-19.6 18.1-19.6 27.9z"/>
    <path class="st0" d="M140.2 259.8c-8.5-5.5-21.8-7.8-18.3 2.2 1.7 4.9 7.2 7.7 9.3 7.2 2.5 8.8-5 7.6-8.6 5.6-7.1-3.9-16-11.3-27-4.9-10 5.9-14.7 22.1 2.5 37 5.8 5 25.1 10 30 9.7 3.5-.2 3.5-9.9-7.3-14.3-7.4-3-9-7.8-2.1-7.2 9.2.8 18.2 14.2 34.1-4.3 10.7-12.4-4.4-25.7-12.6-31z"/>
    <path class="st0" d="M156.8 281.6l-4.6 23.7-14.2 2.5-22.2-4.3-8.1-5.4 9.8-19 3.9-20.2 20.6 17.6-54.6 4.1-4.5 23.6 17.3 13.1 26.2 16.5 3.9-20.3z"/>
    <path class="st1" d="M136.3 280c-8.5-5.5-21.8-7.8-18.3 2.2 1.7 4.9 7.2 7.7 9.3 7.2 2.5 8.8-4.7 6.1-8.3 4.1-7.1-3.9-16.3-9.9-27.3-3.4-10 5.9-14.7 22.1 2.5 37 5.8 5 25.1 10 30 9.7 3.5-.2 3.5-9.9-7.3-14.3-7.4-3-9-7.8-2.1-7.2 9.2.8 18.2 14.2 34.1-4.3 10.7-12.4-4.4-25.7-12.6-31z"/>
    <path class="st0" d="M889.7 379.6c7.4 12.7 23.1 24.5 25.2 9.1 1-7.4-4.3-14.8-7.3-15.5 2.6-13.1 11.5-6.6 14.9-1.6 6.7 9.7 13.3 25.3 31.9 24.1 16.9-1.1 33.6-19.1 21.1-49.8-4.2-10.4-26-29.4-32.7-32.4-4.7-2.1-11.1 10.5.1 23.4 7.6 8.8 6.6 16-2 10.7-11.5-7.1-14.3-30.4-47.2-16.8-22.1 9.2-11.2 36.5-4 48.8z"/>
    <path class="st0" d="M882.5 340.3l21.6-27.8 20.1 6.1 26.1 20.1 6.9 12.3-25.2 18.4-18.4 23.7-15.2-36.4 73.6 30.5 21.5-27.7-13.9-28.4-23.2-38.7-18.4 23.8z"/>
    <path class="st3" d="M908 355.9c7.4 12.7 23.1 24.5 25.2 9.1 1-7.4-4.3-14.8-7.3-15.5 2.6-13.1 10.1-4.9 13.6.1 6.7 9.7 14.7 23.6 33.2 22.4 16.9-1.1 33.6-19.1 21.1-49.8-4.2-10.4-26-29.4-32.7-32.4-4.7-2.1-11.1 10.5.1 23.4 7.6 8.8 6.6 16-2 10.7-11.5-7.1-14.3-30.4-47.2-16.8-22 9.1-11.1 36.5-4 48.8z"/>
    <path class="st0" d="M903.4 425.5c7.4 12.7 23.1 24.5 25.2 9.1 1-7.4-4.3-14.8-7.3-15.5 2.6-13.1 11.5-6.6 14.9-1.6 6.7 9.7 13.3 25.3 31.9 24.1 16.9-1.1 33.6-19.1 21.1-49.8-4.2-10.4-26-29.4-32.7-32.4-4.7-2.1-11.1 10.5.1 23.4 7.6 8.8 6.6 16-2 10.7-11.5-7.1-14.3-30.4-47.2-16.8-22 9.1-11.2 36.5-4 48.8z"/>
    <path class="st0" d="M896.2 386.2l21.6-27.9 20.1 6.2 26.1 20.1 6.9 12.3-25.2 18.4-18.4 23.7-15.2-36.4 73.6 30.5 21.5-27.7-13.9-28.4-23.2-38.7-18.4 23.7z"/>
    <path class="st3" d="M921.8 401.8c7.4 12.7 23.1 24.5 25.2 9.1 1-7.4-4.3-14.8-7.3-15.5 2.6-13.1 10.1-4.9 13.6.1 6.7 9.7 14.7 23.6 33.2 22.4 16.9-1.1 33.6-19.1 21.1-49.8-4.2-10.4-26-29.4-32.7-32.4-4.7-2.1-11.1 10.5.1 23.4 7.6 8.8 6.6 16-2 10.7-11.5-7.1-14.3-30.4-47.2-16.8-22.1 9.1-11.2 36.5-4 48.8z"/>
    <path class="st0" d="M1061.3 359.8c7.4 12.7 23.1 24.5 25.2 9.1 1-7.4-4.3-14.8-7.3-15.5 2.6-13.1 11.5-6.6 14.9-1.6 6.7 9.7 13.3 25.3 31.9 24.1 16.9-1.1 33.6-19.1 21.1-49.8-4.2-10.4-26-29.4-32.7-32.4-4.7-2.1-11.1 10.5.1 23.4 7.6 8.8 6.6 16-2 10.7-11.5-7.1-14.3-30.4-47.2-16.8-22 9.2-11.1 36.5-4 48.8z"/>
    <path class="st0" d="M1054.1 320.6l21.6-27.9 20.2 6.1L1122 319l6.9 12.3-25.3 18.4-18.4 23.7-15.1-36.5 73.6 30.5 21.4-27.6-13.8-28.4-23.3-38.7-18.3 23.7z"/>
    <path class="st3" d="M1079.7 336.1c7.4 12.7 23.1 24.5 25.2 9.1 1-7.4-4.3-14.8-7.3-15.5 2.6-13.1 10.1-4.9 13.6.1 6.7 9.7 14.7 23.6 33.2 22.4 16.9-1.1 33.6-19.1 21.1-49.8-4.2-10.4-26-29.4-32.7-32.4-4.7-2.1-11.1 10.5.1 23.4 7.6 8.8 6.6 16-2 10.7-11.5-7.1-14.3-30.4-47.2-16.8-22 9.2-11.1 36.5-4 48.8z"/>
    <path class="st0" d="M354.8 375.4c6.4 13.3 21.1 26.3 24.4 11.1 1.6-7.3-3.1-15.1-6.1-16.1 3.6-12.9 12-5.6 15-.4 5.9 10.2 11.2 26.3 29.8 26.5 17 .3 35-16.3 25.1-47.9-3.4-10.7-23.6-31.4-29.9-34.9-4.5-2.4-11.9 9.6-1.8 23.3 6.9 9.4 5.2 16.5-2.8 10.5-10.8-8-11.8-31.5-45.7-20.5-22.8 7.4-14.2 35.6-8 48.4z"/>
    <path class="st0" d="M350.8 335.7l23.8-26.1 19.6 7.7 24.3 22.3 5.9 12.8-26.6 16.3-20.3 22.1-12.1-37.5 70.9 36.3 23.6-25.8-11.6-29.5-20-40.4-20.2 22.2z"/>
    <path class="st1" d="M375 353.2c6.4 13.3 21.1 26.3 24.4 11.1 1.6-7.3-3.1-15.1-6.1-16.1 3.6-12.9 10.5-4 13.5 1.2 5.9 10.2 12.7 24.7 31.3 25 17 .3 35-16.3 25.1-47.9-3.4-10.7-23.6-31.4-29.9-34.9-4.5-2.4-11.9 9.6-1.8 23.3 6.9 9.4 5.2 16.5-2.8 10.5-10.8-8-11.8-31.5-45.7-20.5-22.7 7.4-14.1 35.5-8 48.3z"/>
    <path class="st0" d="M678 452c14.1 4.3 33.6 2.3 24.7-10.4-4.3-6.1-13.2-8-15.9-6.4-7-11.4 3.9-12.6 9.8-11.3 11.5 2.6 27 9.5 39.8-3.9 11.7-12.3 11.7-36.8-18.3-50.9-10.1-4.7-39.1-4-46-1.6-4.8 1.7-1 15.2 16 17.1 11.6 1.3 15.7 7.3 5.8 9.2-13.2 2.6-31.2-12.7-46.1 19.6-10 21.7 16.6 34.4 30.2 38.6z"/>
    <path class="st0" d="M646 428l-3-35.1 18.9-9.1 32.9-2.9 13.4 4.3-6 30.7 2.6 29.8-35.9-16.5 74.7-27.5-3-34.8-29.5-11.5-43.3-12.6 2.6 29.8z"/>
    <path class="st1" d="M675.4 422.1c14.1 4.3 33.6 2.3 24.7-10.4-4.3-6.1-13.2-8-15.9-6.4-7-11.4 4.1-10.5 10-9.1 11.5 2.6 26.8 7.4 39.6-6.1 11.7-12.3 11.7-36.8-18.3-50.9-10.1-4.7-39.1-4-46-1.6-4.8 1.7-1 15.2 16 17.1 11.6 1.3 15.7 7.3 5.8 9.2-13.2 2.6-31.2-12.7-46.1 19.6-10 21.7 16.6 34.4 30.2 38.6z"/>
    <path class="st0" d="M504.3 427.9c12.2-8.3 22.7-24.8 7.3-25.8-7.5-.5-14.5 5.4-15 8.4-13.3-1.6-7.4-10.9-2.7-14.7 9.2-7.4 24.3-15.1 21.7-33.5-2.3-16.8-21.5-32.1-51.2-17.4-10 5-27.5 28.1-29.9 34.9-1.7 4.8 11.3 10.3 23.4-1.8 8.2-8.2 15.5-7.7 10.8 1.2-6.2 11.9-29.3 16.5-13.3 48.2 10.6 21.4 37.1 8.5 48.9.5z"/>
    <path class="st0" d="M465.6 438l-29.4-19.5 4.6-20.5 18.3-27.5 11.8-7.8 20.2 23.8 25 16.6-35.3 17.8 25.1-75.6-29.2-19.3-27.4 15.9-36.9 25.9 25 16.6z"/>
    <path class="st1" d="M479.3 411.3c12.2-8.3 22.7-24.8 7.3-25.8-7.5-.5-14.5 5.4-15 8.4-13.3-1.6-5.6-9.7-.9-13.5 9.2-7.4 22.5-16.3 19.9-34.7-2.3-16.8-21.5-32.1-51.2-17.4-10 5-27.5 28.1-29.9 34.9-1.7 4.8 11.3 10.3 23.4-1.8 8.2-8.2 15.5-7.7 10.8 1.2-6.2 11.9-29.3 16.5-13.3 48.2 10.6 21.4 37.1 8.6 48.9.5z"/>
    <path class="st0" d="M823.5 429.9c12.2-8.3 22.7-24.8 7.3-25.8-7.5-.5-14.5 5.4-15 8.4-13.3-1.6-7.4-10.9-2.7-14.7 9.2-7.4 24.3-15.1 21.7-33.5-2.3-16.8-21.5-32.1-51.2-17.4-10 5-27.5 28.1-29.9 34.9-1.7 4.8 11.3 10.3 23.4-1.8 8.2-8.2 15.5-7.7 10.8 1.2-6.2 11.9-29.3 16.5-13.3 48.2 10.7 21.4 37.2 8.6 48.9.5z"/>
    <path class="st0" d="M784.9 440l-29.4-19.5 4.6-20.5 18.2-27.5 11.8-7.8 20.2 23.8 25 16.6-35.2 17.8 25-75.6-29.2-19.3-27.3 15.9-36.9 25.9 25 16.6z"/>
    <path class="st1" d="M798.5 413.4c12.2-8.3 22.7-24.8 7.3-25.8-7.5-.5-14.5 5.4-15 8.4-13.3-1.6-5.6-9.7-.9-13.5 9.2-7.4 22.5-16.3 19.9-34.7-2.3-16.8-21.5-32.1-51.2-17.4-10 5-27.5 28.1-29.9 34.9-1.7 4.8 11.3 10.3 23.4-1.8 8.2-8.2 15.5-7.7 10.8 1.2-6.2 11.9-29.3 16.5-13.3 48.2 10.7 21.3 37.2 8.5 48.9.5z"/>
    <path class="st0" d="M236.1 302.8c4.2 14.1 16.7 29.3 22.3 14.9 2.7-7-.7-15.4-3.4-16.8 5.6-12.2 12.7-3.7 14.8 2 4.2 11 6.9 27.7 25.2 30.9 16.7 2.9 37.2-10.5 32.3-43.3-1.6-11.1-18.3-34.8-24-39.2-4.1-3.1-13.3 7.6-5.4 22.8 5.3 10.3 2.6 17.1-4.5 9.9-9.4-9.6-6.6-33-41.8-27.5-23.6 3.6-19.5 32.7-15.5 46.3z"/>
    <path class="st0" d="M238.4 263l27.7-22 18.1 10.8 20.5 25.8 3.8 13.5-28.9 11.9-23.5 18.7-6-39 64.2 47.1 27.4-21.8-6.7-30.9-13.4-43.1-23.5 18.7z"/>
    <path class="st1" d="M259.6 284.2c4.2 14.1 16.7 29.3 22.3 14.9 2.7-7-.7-15.4-3.4-16.8 5.6-12.2 11-2.3 13.2 3.3 4.2 11 8.6 26.4 26.9 29.6 16.7 2.9 37.2-10.5 32.3-43.3-1.6-11.1-18.3-34.8-24-39.2-4.1-3.1-13.3 7.6-5.4 22.8 5.3 10.3 2.6 17.1-4.5 9.9-9.4-9.6-6.6-33-41.8-27.5-23.7 3.5-19.6 32.6-15.6 46.3z"/>
    <path class="st0" d="M187.6 265.4c3.1 14.4 14.3 30.5 21.1 16.5 3.3-6.7.5-15.4-2.1-17 6.5-11.7 12.9-2.7 14.6 3.1 3.3 11.3 4.8 28.2 22.8 32.8 16.4 4.2 37.9-7.6 35.6-40.7-.8-11.2-15.5-36.1-20.9-40.9-3.8-3.4-13.8 6.5-7.2 22.3 4.5 10.7 1.2 17.2-5.2 9.6-8.7-10.3-4.1-33.4-39.6-30.7-23.8 1.7-22 31.1-19.1 45z"/>
    <path class="st0" d="M193.1 225.8l29.2-19.7 17.2 12.1 18.5 27.3 2.7 13.8-29.7 9.6-24.9 16.8-3-39.3 60.4 51.9 29-19.6-4.3-31.3-10-44-24.8 16.8z"/>
    <path class="st1" d="M212.5 248.6c3.1 14.4 14.3 30.5 21.1 16.5 3.3-6.7.5-15.4-2.1-17 6.5-11.7 11.2-1.5 12.9 4.3 3.3 11.3 6.6 27 24.6 31.6 16.4 4.2 37.9-7.6 35.6-40.7-.8-11.2-15.5-36.1-20.9-40.9-3.8-3.4-13.8 6.5-7.2 22.3 4.5 10.7 1.2 17.2-5.2 9.6-8.7-10.3-4.1-33.4-39.6-30.7-23.9 1.7-22.1 31.1-19.2 45z"/>
    <path class="st0" d="M981.5 321.6c-2.8 11.1-.4 26 9.1 18.7 4.6-3.6 5.6-10.5 4.3-12.6 8.5-5.9 9.9 2.5 9.1 7.1-1.5 9-6.3 21.2 4.7 30.5 10 8.5 28.9 7.6 38.6-16.2 3.3-8 1.5-30.4-.6-35.6-1.5-3.7-11.8-.2-12.6 13-.5 9-5 12.4-6.9 4.9-2.5-10.1 8.5-24.6-17.1-34.8-17.2-6.6-25.9 14.4-28.6 25z"/>
    <path class="st0" d="M998.7 296l27.1-3.8 7.8 14.2 3.6 25.3-2.8 10.5-24-3.4-23 3.2 11.3-28.3 24.3 56.6 26.9-3.8 7.6-23.2 8.1-34-23 3.2z"/>
    <path class="st1" d="M1004.5 318.4c-2.8 11.1-.4 26 9.1 18.7 4.6-3.6 5.6-10.5 4.3-12.6 8.5-5.9 8.3 2.8 7.5 7.4-1.5 9-4.6 21 6.3 30.3 10 8.5 28.9 7.6 38.6-16.2 3.3-8 1.5-30.4-.6-35.6-1.5-3.7-11.8-.2-12.6 13-.5 9-5 12.4-6.9 4.9-2.5-10.1 8.5-24.6-17.1-34.8-17.2-6.8-25.9 14.2-28.6 24.9z"/>
    <path class="st0" d="M239.2 412.4c7.5 12.7 23.3 24.3 25.3 8.9 1-7.4-4.4-14.8-7.5-15.5 2.5-13.2 11.4-6.7 14.9-1.7 6.8 9.7 13.5 25.2 32.1 23.8 16.9-1.2 33.4-19.3 20.7-50-4.3-10.3-26.3-29.2-32.9-32.1-4.7-2-11 10.6.3 23.4 7.7 8.7 6.7 15.9-1.9 10.7-11.5-7-14.5-30.3-47.3-16.4-22 9.4-10.9 36.7-3.7 48.9z"/>
    <path class="st0" d="M231.7 373.2l21.4-28.1 20.2 6 26.2 20 7 12.2-25 18.6-18.2 23.9-15.5-36.4 73.9 29.9 21.2-27.8-14.1-28.3-23.6-38.5-18.1 23.9z"/>
    <path class="st1" d="M257.4 388.5c7.5 12.7 23.3 24.3 25.3 8.9 1-7.4-4.4-14.8-7.5-15.5 2.5-13.2 10.1-5 13.6 0 6.8 9.7 14.8 23.4 33.4 22.1 16.9-1.2 33.4-19.3 20.7-50-4.3-10.3-26.3-29.2-32.9-32.1-4.7-2-11 10.6.3 23.4 7.7 8.7 6.7 15.9-1.9 10.7-11.5-7-14.5-30.3-47.3-16.4-22 9.4-10.9 36.7-3.7 48.9z"/>
    <path class="st0" d="M899.1 273.9c9.6 11.2 27.2 19.9 26.5 4.4-.3-7.5-6.9-13.8-10-13.9.1-13.4 10.1-8.5 14.3-4.3 8.3 8.4 17.7 22.4 35.7 17.9 16.5-4.1 29.6-24.8 11.7-52.8-6-9.4-30.9-24.3-38-25.9-5-1.2-9 12.3 4.4 23 9.1 7.3 9.3 14.5 0 10.9-12.5-4.9-19.6-27.4-49.4-8-20.1 12.9-4.4 37.9 4.8 48.7z"/>
    <path class="st0" d="M884.9 236.5l16.3-31.3 20.9 2.4 29.3 15.2 9 10.8-21.5 22.7-13.8 26.6-21.5-33.1 77.9 16.7 16.1-31.1-18.8-25.4-29.8-33.9-13.8 26.7z"/>
    <path class="st1" d="M912.9 247.2c9.6 11.2 27.2 19.9 26.5 4.4-.3-7.5-6.9-13.8-10-13.9.1-13.4 9.1-6.6 13.4-2.4 8.3 8.4 18.7 20.5 36.7 16 16.5-4.1 29.6-24.8 11.7-52.8-6-9.4-30.9-24.3-38-25.9-5-1.2-9 12.3 4.4 23 9.1 7.3 9.3 14.5 0 10.9-12.5-4.9-19.6-27.4-49.4-8-20.2 13-4.5 37.9 4.7 48.7z"/>
    <g>
      <path class="st0" d="M959.4 315c7.4 12.7 23.1 24.5 25.2 9.1 1-7.4-4.3-14.8-7.3-15.5 2.6-13.1 11.5-6.6 14.9-1.6 6.7 9.7 13.3 25.3 31.9 24.1 16.9-1.1 33.6-19.1 21.1-49.8-4.2-10.4-26-29.4-32.7-32.4-4.7-2.1-11.1 10.5.1 23.4 7.6 8.8 6.6 16-2 10.7-11.5-7.1-14.3-30.4-47.2-16.8-22 9.1-11.2 36.5-4 48.8z"/>
      <path class="st0" d="M952.2 275.7l21.6-27.9 20.1 6.2 26.1 20.1 6.9 12.3-25.2 18.4-18.4 23.7-15.1-36.4 73.6 30.5 21.4-27.7-13.9-28.4-23.2-38.7-18.4 23.7z"/>
      <path class="st2" d="M977.8 291.2c7.4 12.7 23.1 24.5 25.2 9.1 1-7.4-4.3-14.8-7.3-15.5 2.6-13.1 10.1-4.9 13.6.1 6.7 9.7 14.7 23.6 33.2 22.4 16.9-1.1 33.6-19.1 21.1-49.8-4.2-10.4-26-29.4-32.7-32.4-4.7-2.1-11.1 10.5.1 23.4 7.6 8.8 6.6 16-2 10.7-11.5-7.1-14.3-30.4-47.2-16.8-22 9.2-11.2 36.6-4 48.8z"/>
    </g>
    <g>
      <path class="st0" d="M990.8 394.6c3.7 10.8 13.9 22.1 17.8 10.7 1.9-5.5-1-11.9-3.2-12.9 3.9-9.6 9.7-3.3 11.5 1 3.6 8.4 6.3 21.2 20.6 23.1 13 1.7 28.4-9.4 23.5-34.6-1.6-8.5-15.3-26.3-19.9-29.5-3.2-2.3-10 6.3-3.4 17.8 4.5 7.8 2.6 13.1-3.1 7.8-7.6-7.1-6.3-25.3-33.3-19.9-18.2 3.7-14.1 26.1-10.5 36.5z"/>
      <path class="st0" d="M991.2 363.7l20.7-17.9 14.3 7.7 16.8 19.2 3.4 10.4-22 10.2-17.5 15.2-6-29.9 51.3 34.2 20.4-17.8-6.2-23.6-11.8-32.9-17.5 15.2z"/>
      <path class="st1" d="M1008.3 379.4c3.7 10.8 13.9 22.1 17.8 10.7 1.9-5.5-1-11.9-3.2-12.9 3.9-9.6 8.4-2.2 10.3 2.1 3.6 8.4 7.6 20.1 21.8 22 13 1.7 28.4-9.4 23.5-34.6-1.6-8.5-15.3-26.3-19.9-29.5-3.2-2.3-10 6.3-3.4 17.8 4.5 7.8 2.6 13.1-3.1 7.8-7.6-7.1-6.3-25.3-33.3-19.9-18.2 3.7-14 26.1-10.5 36.5z"/>
    </g>
    <g>
      <path class="st0" d="M302.6 313.3c0 14.7 7.8 32.8 17.3 20.5 4.6-5.9 3.7-15 1.4-17.1 8.8-10.1 13.2 0 13.7 6.1.9 11.8-1.1 28.5 15.5 36.8 15.2 7.5 38.6.3 43.2-32.5 1.5-11.1-7.8-38.5-12-44.4-3-4.1-14.9 3.5-11.6 20.3 2.2 11.4-2.3 17.1-7.1 8.3-6.4-11.9 2.9-33.5-32.4-38.1-23.7-3.2-28.1 25.9-28 40.1z"/>
      <path class="st0" d="M316 275.7l32.7-13.3 14.4 15.4 12.4 30.5-.2 14.1-31 3.3-27.8 11.3 5.1-39.1 48.5 63.2 32.4-13.2 2.2-31.6-.7-45.1-27.8 11.4z"/>
      <path class="st1" d="M330.4 302c0 14.7 7.8 32.8 17.3 20.5 4.6-5.9 3.7-15 1.4-17.1 8.8-10.1 11.2.8 11.7 6.9.9 11.8.9 27.7 17.5 36 15.2 7.5 38.6.3 43.2-32.5 1.5-11.1-7.8-38.5-12-44.4-3-4.1-14.9 3.5-11.6 20.3 2.2 11.4-2.3 17.1-7.1 8.3-6.4-11.9 2.9-33.5-32.4-38.1-23.7-3.2-28.1 25.9-28 40.1z"/>
    </g>
    <g>
      <path class="st0" d="M788.5 305.3c8.2 12.3 24.5 23.1 25.7 7.7.6-7.5-5.2-14.5-8.2-15.1 1.8-13.3 11.1-7.2 14.8-2.5 7.2 9.3 14.8 24.5 33.2 22.2 16.8-2.1 32.4-21 18.2-50.9-4.8-10.1-27.7-27.9-34.5-30.4-4.8-1.8-10.5 11.1 1.5 23.4 8.1 8.3 7.5 15.6-1.4 10.8-11.8-6.4-16-29.6-48.1-14-21.5 10.3-9.1 36.9-1.2 48.8z"/>
      <path class="st0" d="M779 266.5l19.9-29.1 20.5 5 27.2 18.6 7.6 11.9-24.1 19.8-17 24.7-17.2-35.5 75.2 26.2 19.8-28.9-15.5-27.5-25.4-37.3-17 24.7z"/>
      <path class="st1" d="M805.4 280.5c8.2 12.3 24.5 23.1 25.7 7.7.6-7.5-5.2-14.5-8.2-15.1 1.8-13.3 9.8-5.5 13.6-.7 7.2 9.3 16 22.7 34.4 20.4 16.8-2.1 32.4-21 18.2-50.9-4.8-10.1-27.7-27.9-34.5-30.4-4.8-1.8-10.5 11.1 1.5 23.4 8.1 8.3 7.5 15.6-1.4 10.8-11.8-6.4-16-29.6-48.1-14-21.5 10.3-9 37-1.2 48.8z"/>
    </g>
    <g>
      <path class="st0" d="M474.1 341.8c-5.5 13.7-5.2 33.3 8.2 25.5 6.5-3.7 9.1-12.5 7.8-15.3 12-6 12.2 5 10.4 10.8-3.6 11.2-11.8 26 .5 39.9 11.2 12.7 35.7 14.9 52.3-13.8 5.6-9.7 7.4-38.6 5.6-45.6-1.2-5-15.1-2.3-18.4 14.4-2.3 11.4-8.6 15-9.7 5-1.4-13.4 15.3-29.9-15.6-47.5-20.8-11.9-35.8 13.4-41.1 26.6z"/>
      <path class="st0" d="M500.8 312H536l7.5 19.7v32.9l-5.5 13-30-8.7h-30l19.6-34.2 20.9 76.7h35l14-28.3 16.4-42h-30z"/>
      <path class="st1" d="M504.1 341.8c-5.5 13.7-5.2 33.3 8.2 25.5 6.5-3.7 9.1-12.5 7.8-15.3 12-6 10.1 5 8.2 10.8-3.6 11.2-9.7 26 2.6 39.9 11.2 12.7 35.7 14.9 52.3-13.8 5.6-9.7 7.4-38.6 5.6-45.6-1.2-5-15.1-2.3-18.4 14.4-2.3 11.4-8.6 15-9.7 5-1.4-13.4 15.3-29.9-15.6-47.5-20.7-11.9-35.6 13.4-41 26.6z"/>
    </g>
    <g>
      <path class="st0" d="M378.6 426.9c7.8 12.5 23.9 23.7 25.5 8.3.8-7.4-4.8-14.7-7.8-15.3 2.1-13.2 11.2-7 14.8-2.1 7 9.5 14.2 24.8 32.6 23 16.9-1.7 33-20.2 19.5-50.4-4.6-10.2-27-28.6-33.7-31.3-4.7-1.9-10.7 10.9.9 23.4 7.9 8.5 7.1 15.8-1.6 10.8-11.7-6.7-15.3-29.9-47.7-15.2-21.8 9.8-10 36.8-2.5 48.8z"/>
      <path class="st0" d="M370.1 387.9l20.7-28.6 20.4 5.5 26.7 19.3 7.3 12.1-24.6 19.2-17.6 24.3-16.4-35.9 74.6 28 20.5-28.3-14.8-28-24.4-37.9-17.6 24.3z"/>
      <path class="st1" d="M396.2 402.6c7.8 12.5 23.9 23.7 25.5 8.3.8-7.4-4.8-14.7-7.8-15.3 2.1-13.2 10-5.2 13.6-.4 7 9.5 15.4 23.1 33.9 21.3 16.9-1.7 33-20.2 19.5-50.4-4.6-10.2-27-28.6-33.7-31.3-4.7-1.9-10.7 10.9.9 23.4 7.9 8.5 7.1 15.8-1.6 10.8-11.7-6.7-15.3-29.9-47.7-15.2-21.9 9.8-10.1 36.8-2.6 48.8z"/>
    </g>
    <g>
      <path class="st0" d="M159.7 293.5c0 14.7 7.8 32.8 17.3 20.5 4.6-5.9 3.7-15 1.4-17.1 8.8-10.1 13.2 0 13.7 6.1.9 11.8-1.1 28.5 15.5 36.8 15.2 7.5 38.6.3 43.2-32.5 1.5-11.1-7.8-38.5-12-44.4-3-4.1-14.9 3.5-11.6 20.3 2.2 11.4-2.3 17.1-7.1 8.3-6.4-11.9 2.9-33.5-32.4-38.1-23.7-3.2-28.1 25.9-28 40.1z"/>
      <path class="st0" d="M173.1 255.9l32.7-13.3 14.4 15.4 12.4 30.5-.2 14.1-31 3.3-27.8 11.3 5.1-39.1 48.5 63.2 32.4-13.2 2.2-31.6-.7-45.1-27.8 11.4z"/>
      <path class="st1" d="M187.5 282.2c0 14.7 7.8 32.8 17.3 20.5 4.6-5.9 3.7-15 1.4-17.1 8.8-10.1 11.2.8 11.7 6.9.9 11.8.9 27.7 17.5 36 15.2 7.5 38.6.3 43.2-32.5 1.5-11.1-7.8-38.5-12-44.4-3-4.1-14.9 3.5-11.6 20.3 2.2 11.4-2.3 17.1-7.1 8.3-6.4-11.9 2.9-33.5-32.4-38.1-23.7-3.2-28.1 25.9-28 40.1z"/>
    </g>
    <g>
      <path class="st0" d="M287.2 308.1c-8.8 11.9-13.3 30.9 1.6 26.8 7.2-2 11.9-9.8 11.4-12.9 13.1-2.9 10.6 7.9 7.4 13-6.3 10-17.9 22.2-9.5 38.8 7.7 15.1 30.9 23.2 54.1-.4 7.8-8 16.7-35.5 16.8-42.8 0-5.1-14-6-21.5 9.4-5 10.5-12.1 12.3-10.6 2.4 2-13.3 22.3-25.2-3.3-49.9-17.1-16.6-37.9 4.2-46.4 15.6z"/>
      <path class="st0" d="M320.4 285.9l34.2 8.8 2.4 20.9-8.2 31.9-8.6 11.2-26.9-15.8-29.1-7.5 27.5-28.3 1.2 79.5 33.9 8.7 20.6-23.9 26.4-36.7-29.1-7.4z"/>
      <path class="st1" d="M316.3 315.6c-8.8 11.9-13.3 30.9 1.6 26.8 7.2-2 11.9-9.8 11.4-12.9 13.1-2.9 8.5 7.4 5.3 12.5-6.3 10-15.9 22.8-7.4 39.3 7.7 15.1 30.9 23.2 54.1-.4 7.8-8 16.7-35.5 16.8-42.8 0-5.1-14-6-21.5 9.4-5 10.5-12.1 12.3-10.6 2.4 2-13.3 22.3-25.2-3.3-49.9-17.1-16.7-38 4.1-46.4 15.6z"/>
    </g>
    <g>
      <path class="st0" d="M103.1 340c3.4 14.4 15.1 30.1 21.5 16 3.1-6.8.2-15.4-2.5-17 6.3-11.8 12.9-3 14.7 2.8 3.6 11.2 5.4 28 23.5 32.2 16.5 3.8 37.7-8.5 34.6-41.5-1-11.1-16.4-35.7-21.9-40.4-3.9-3.3-13.7 6.8-6.7 22.4 4.8 10.6 1.6 17.2-5 9.7-8.9-10.1-4.9-33.3-40.3-29.7-23.7 2.4-21.2 31.7-17.9 45.5z"/>
      <path class="st0" d="M107.6 300.4l28.7-20.4 17.5 11.6 19.1 26.9 3.1 13.8-29.5 10.3-24.5 17.3-3.9-39.2 61.6 50.4 28.5-20.2-5-31.2-11-43.7-24.5 17.3z"/>
      <path class="st1" d="M127.5 322.7c3.4 14.4 15.1 30.1 21.5 16 3.1-6.8.2-15.4-2.5-17 6.3-11.8 11.1-1.7 13 4 3.6 11.2 7.2 26.8 25.3 31 16.5 3.8 37.7-8.5 34.6-41.5-1-11.1-16.4-35.7-21.9-40.4-3.9-3.3-13.7 6.8-6.7 22.4 4.8 10.6 1.6 17.2-5 9.7-8.9-10.1-4.9-33.3-40.3-29.7-23.7 2.3-21.2 31.7-18 45.5z"/>
    </g>
    <g>
      <path class="st0" d="M470.6 416.9c0 14.7 7.8 32.8 17.3 20.5 4.6-5.9 3.7-15 1.4-17.1 8.8-10.1 13.2 0 13.7 6.1.9 11.8-1.1 28.5 15.5 36.8 15.2 7.5 38.6.3 43.2-32.5 1.5-11.1-7.8-38.5-12-44.4-3-4.1-14.9 3.5-11.6 20.3 2.2 11.4-2.3 17.1-7.1 8.3-6.4-11.9 2.9-33.5-32.4-38.1-23.7-3.2-28 25.9-28 40.1z"/>
      <path class="st0" d="M484 379.3l32.7-13.3 14.4 15.3 12.4 30.6-.1 14-31.1 3.3-27.8 11.4 5.2-39.1 48.4 63.1 32.4-13.2 2.2-31.5-.7-45.1-27.8 11.4z"/>
      <path class="st1" d="M498.4 405.5c0 14.7 7.8 32.8 17.3 20.5 4.6-5.9 3.7-15 1.4-17.1 8.8-10.1 11.2.8 11.7 6.9.9 11.8.9 27.7 17.5 36 15.2 7.5 38.6.3 43.2-32.5 1.5-11.1-7.8-38.5-12-44.4-3-4.1-14.9 3.5-11.6 20.3 2.2 11.4-2.3 17.1-7.1 8.3-6.4-11.9 2.9-33.5-32.4-38.1-23.7-3.2-28 25.9-28 40.1z"/>
    </g>
    <g>
      <path class="st0" d="M398.6 483.6c6.4 13.3 21.1 26.3 24.4 11.1 1.6-7.3-3.1-15.1-6.1-16.1 3.6-12.9 12-5.6 15-.4 5.9 10.2 11.2 26.3 29.8 26.5 17 .3 35-16.3 25.1-47.9-3.4-10.7-23.6-31.4-29.9-34.9-4.5-2.4-11.9 9.6-1.8 23.3 6.9 9.4 5.2 16.5-2.8 10.5-10.8-8-11.8-31.5-45.7-20.5-22.7 7.5-14.1 35.6-8 48.4z"/>
      <path class="st0" d="M394.6 443.9l23.8-26 19.6 7.7 24.4 22.2 5.9 12.8-26.7 16.3-20.2 22.2-12.2-37.5 70.9 36.3 23.6-25.9-11.5-29.4-20-40.4-20.3 22.1z"/>
      <path class="st1" d="M418.9 461.5c6.4 13.3 21.1 26.3 24.4 11.1 1.6-7.3-3.1-15.1-6.1-16.1 3.6-12.9 10.5-4 13.5 1.2 5.9 10.2 12.7 24.7 31.3 25 17 .3 35-16.3 25.1-47.9-3.4-10.7-23.6-31.4-29.9-34.9-4.5-2.4-11.9 9.6-1.8 23.3 6.9 9.4 5.2 16.5-2.8 10.5-10.8-8-11.8-31.5-45.7-20.5-22.8 7.3-14.2 35.5-8 48.3z"/>
    </g>
    <g>
      <path class="st0" d="M322.3 416.9c4.2 14.1 16.7 29.3 22.3 14.9 2.7-7-.7-15.4-3.4-16.8 5.6-12.2 12.7-3.7 14.8 2 4.2 11 6.9 27.7 25.2 30.9 16.7 2.9 37.2-10.5 32.3-43.3-1.6-11.1-18.3-34.8-24-39.2-4.1-3.1-13.3 7.6-5.4 22.8 5.3 10.3 2.6 17.1-4.5 9.9-9.4-9.6-6.6-33-41.8-27.5-23.6 3.6-19.5 32.7-15.5 46.3z"/>
      <path class="st0" d="M324.6 377.1l27.7-21.9 18.1 10.7 20.5 25.8 3.8 13.5-28.9 11.9-23.5 18.7-6.1-39 64.3 47.1 27.4-21.8-6.7-30.9-13.4-43.1-23.5 18.7z"/>
      <path class="st2" d="M345.8 398.3c4.2 14.1 16.7 29.3 22.3 14.9 2.7-7-.7-15.4-3.4-16.8 5.6-12.2 11-2.3 13.2 3.3 4.2 11 8.6 26.4 26.9 29.6 16.7 2.9 37.2-10.5 32.3-43.3-1.6-11.1-18.3-34.8-24-39.2-4.1-3.1-13.3 7.6-5.4 22.8 5.3 10.3 2.6 17.1-4.5 9.9-9.4-9.6-6.6-33-41.8-27.5-23.7 3.5-19.6 32.6-15.6 46.3z"/>
    </g>
    <g>
      <path class="st0" d="M837.1 323.9c-7.1 13-8.9 32.5 5.3 26.3 6.9-3 10.4-11.4 9.5-14.3 12.6-4.6 11.6 6.4 9.1 11.9-4.8 10.8-14.7 24.5-4.1 39.7 9.7 13.9 33.8 18.8 53.6-7.8 6.7-9 11.7-37.5 10.8-44.7-.7-5.1-14.7-4-20 12.3-3.6 10.9-10.3 13.7-10.3 3.7.1-13.5 18.6-28-10.1-49-19.2-14.1-37 9.4-43.8 21.9z"/>
      <path class="st0" d="M867 297.3l35 4 5.2 20.4-3.7 32.7-6.9 12.3-28.9-12-29.8-3.4 23.3-31.8 12.1 78.6 34.8 4 17.1-26.6 21.1-39.9-29.8-3.4z"/>
      <path class="st1" d="M866.9 327.3c-7.1 13-8.9 32.5 5.3 26.3 6.9-3 10.4-11.4 9.5-14.3 12.6-4.6 9.4 6.1 7 11.6-4.8 10.8-12.6 24.7-1.9 39.9 9.7 13.9 33.8 18.8 53.6-7.8 6.7-9 11.7-37.5 10.8-44.7-.7-5.1-14.7-4-20 12.3-3.6 11.1-10.3 13.9-10.2 3.9.1-13.5 18.6-28-10.1-49-19.4-14.2-37.2 9.3-44 21.8z"/>
    </g>
    <g>
      <path class="st0" d="M560.9 407.7c3.1 14.4 14.3 30.5 21.1 16.5 3.3-6.7.5-15.4-2.1-17 6.5-11.7 12.9-2.7 14.6 3.1 3.3 11.3 4.8 28.2 22.8 32.8 16.4 4.2 37.9-7.6 35.6-40.7-.8-11.2-15.5-36.1-20.9-40.9-3.8-3.4-13.8 6.5-7.2 22.3 4.5 10.7 1.2 17.2-5.2 9.6-8.7-10.3-4.1-33.4-39.6-30.7-23.9 1.7-22.1 31.1-19.1 45z"/>
      <path class="st0" d="M566.3 368.1l29.2-19.7 17.2 12.1 18.5 27.3 2.7 13.8-29.7 9.6-24.9 16.8-3-39.3 60.5 51.9 29-19.6-4.3-31.3-10-44-24.9 16.8z"/>
      <path class="st1" d="M585.8 390.9c3.1 14.4 14.3 30.5 21.1 16.5 3.3-6.7.5-15.4-2.1-17 6.5-11.7 11.2-1.5 12.9 4.3 3.3 11.3 6.6 27 24.6 31.6 16.4 4.2 37.9-7.6 35.6-40.7-.8-11.2-15.5-36.1-20.9-40.9-3.8-3.4-13.8 6.5-7.2 22.3 4.5 10.7 1.2 17.2-5.2 9.6-8.7-10.3-4.1-33.4-39.6-30.7-24 1.7-22.2 31.1-19.2 45z"/>
    </g>
    <g>
      <path class="st0" d="M585 464.1c7.4 12.7 23.1 24.5 25.2 9.1 1-7.4-4.3-14.8-7.3-15.5 2.6-13.1 11.5-6.6 14.9-1.6 6.7 9.7 13.3 25.3 31.9 24.1 16.9-1.1 33.6-19.1 21.1-49.8-4.2-10.4-26-29.4-32.7-32.4-4.7-2.1-11.1 10.5.1 23.4 7.6 8.8 6.6 16-2 10.7-11.5-7.1-14.3-30.4-47.2-16.8-22 9.2-11.1 36.6-4 48.8z"/>
      <path class="st0" d="M577.8 424.9l21.6-27.9 20.2 6.1 26.1 20.2 6.9 12.3-25.3 18.4-18.4 23.7-15.1-36.4 73.6 30.4 21.4-27.6-13.8-28.4-23.2-38.7-18.4 23.7z"/>
      <path class="st1" d="M603.4 440.4c7.4 12.7 23.1 24.5 25.2 9.1 1-7.4-4.3-14.8-7.3-15.5 2.6-13.1 10.1-4.9 13.6.1 6.7 9.7 14.7 23.6 33.2 22.4 16.9-1.1 33.6-19.1 21.1-49.8-4.2-10.4-26-29.4-32.7-32.4-4.7-2.1-11.1 10.5.1 23.4 7.6 8.8 6.6 16-2 10.7-11.5-7.1-14.3-30.4-47.2-16.8-22 9.2-11.1 36.6-4 48.8z"/>
    </g>
    <g>
      <path class="st0" d="M209.7 358.1c7.4 12.7 23.1 24.5 25.2 9.1 1-7.4-4.3-14.8-7.3-15.5 2.6-13.1 11.5-6.6 14.9-1.6 6.7 9.7 13.3 25.3 31.9 24.1 16.9-1.1 33.6-19.1 21.1-49.8-4.2-10.4-26-29.4-32.7-32.4-4.7-2.1-11.1 10.5.1 23.4 7.6 8.8 6.6 16-2 10.7-11.5-7.1-14.3-30.4-47.2-16.8-22 9.1-11.1 36.5-4 48.8z"/>
      <path class="st0" d="M202.5 318.8l21.6-27.9 20.2 6.2 26 20.1 7 12.3-25.3 18.4-18.4 23.7-15.1-36.4 73.6 30.5 21.4-27.7-13.8-28.4-23.3-38.7-18.3 23.7z"/>
      <path class="st2" d="M228.1 334.4c7.4 12.7 23.1 24.5 25.2 9.1 1-7.4-4.3-14.8-7.3-15.5 2.6-13.1 10.1-4.9 13.6.1 6.7 9.7 14.7 23.6 33.2 22.4 16.9-1.1 33.6-19.1 21.1-49.8-4.2-10.4-26-29.4-32.7-32.4-4.7-2.1-11.1 10.5.1 23.4 7.6 8.8 6.6 16-2 10.7-11.5-7.1-14.3-30.4-47.2-16.8-22 9.1-11.1 36.5-4 48.8z"/>
    </g>
    <g>
      <path class="st0" d="M784.2 419.3c7.4 12.7 23.1 24.5 25.2 9.1 1-7.4-4.3-14.8-7.3-15.5 2.6-13.1 11.5-6.6 14.9-1.6 6.7 9.7 13.3 25.3 31.9 24.1 16.9-1.1 33.6-19.1 21.1-49.8-4.2-10.4-26-29.4-32.7-32.4-4.7-2.1-11.1 10.5.1 23.4 7.6 8.8 6.6 16-2 10.7-11.5-7.1-14.3-30.4-47.2-16.8-22 9.2-11.1 36.5-4 48.8z"/>
      <path class="st0" d="M777 380l21.6-27.8 20.2 6.1 26.1 20.2 6.9 12.3-25.3 18.4-18.4 23.7-15.1-36.5 73.6 30.5 21.4-27.6-13.8-28.5-23.3-38.6-18.3 23.7z"/>
      <path class="st1" d="M802.6 395.6c7.4 12.7 23.1 24.5 25.2 9.1 1-7.4-4.3-14.8-7.3-15.5 2.6-13.1 10.1-4.9 13.6.1 6.7 9.7 14.7 23.6 33.2 22.4 16.9-1.1 33.6-19.1 21.1-49.8-4.2-10.4-26-29.4-32.7-32.4-4.7-2.1-11.1 10.5.1 23.4 7.6 8.8 6.6 16-2 10.7-11.5-7.1-14.3-30.4-47.2-16.8-22 9.2-11.1 36.5-4 48.8z"/>
    </g>
    <g>
      <path class="st0" d="M250.4 247.4c0 14.7 7.8 32.8 17.3 20.5 4.6-5.9 3.7-15 1.4-17.1 8.8-10.1 13.2 0 13.7 6.1.9 11.8-1.1 28.5 15.5 36.8 15.2 7.5 38.6.3 43.2-32.5 1.5-11.1-7.8-38.5-12-44.4-3-4.1-14.9 3.5-11.6 20.3 2.2 11.4-2.3 17.1-7.1 8.3-6.4-11.9 2.9-33.5-32.4-38.1-23.7-3.2-28 25.9-28 40.1z"/>
      <path class="st0" d="M263.9 209.8l32.7-13.3 14.3 15.3 12.5 30.5-.2 14.1-31.1 3.3-27.8 11.4 5.2-39.1 48.4 63.1 32.4-13.2 2.3-31.5-.7-45.1-27.8 11.3z"/>
      <path class="st1" d="M278.2 236c0 14.7 7.8 32.8 17.3 20.5 4.6-5.9 3.7-15 1.4-17.1 8.8-10.1 11.2.8 11.7 6.9.9 11.8.9 27.7 17.5 36 15.2 7.5 38.6.3 43.2-32.5 1.5-11.1-7.8-38.5-12-44.4-3-4.1-14.9 3.5-11.6 20.3 2.2 11.4-2.3 17.1-7.1 8.3-6.4-11.9 2.9-33.5-32.4-38.1-23.7-3.2-28 25.9-28 40.1z"/>
    </g>
    <g>
      <path class="st0" d="M843.8 329.8c7.4 12.7 23.1 24.5 25.2 9.1 1-7.4-4.3-14.8-7.3-15.5 2.6-13.1 11.5-6.6 14.9-1.6 6.7 9.7 13.3 25.3 31.9 24.1 16.9-1.1 33.6-19.1 21.1-49.8-4.2-10.4-26-29.4-32.7-32.4-4.7-2.1-11.1 10.5.1 23.4 7.6 8.8 6.6 16-2 10.7-11.5-7.1-14.3-30.4-47.2-16.8-22 9.1-11.2 36.5-4 48.8z"/>
      <path class="st0" d="M836.6 290.5l21.6-27.9 20.1 6.2 26.1 20.1 6.9 12.3-25.2 18.4-18.4 23.7-15.2-36.4 73.6 30.5 21.5-27.7-13.9-28.4-23.2-38.7-18.4 23.7z"/>
      <path class="st1" d="M862.2 306c7.4 12.7 23.1 24.5 25.2 9.1 1-7.4-4.3-14.8-7.3-15.5 2.6-13.1 10.1-4.9 13.6.1 6.7 9.7 14.7 23.6 33.2 22.4 16.9-1.1 33.6-19.1 21.1-49.8-4.2-10.4-26-29.4-32.7-32.4-4.7-2.1-11.1 10.5.1 23.4 7.6 8.8 6.6 16-2 10.7-11.5-7.1-14.3-30.4-47.2-16.8-22 9.2-11.2 36.6-4 48.8z"/>
    </g>
    <g>
      <path class="st0" d="M342.3 291.9c3.1 14.4 14.3 30.5 21.1 16.5 3.3-6.7.5-15.4-2.1-17 6.5-11.7 12.9-2.7 14.6 3.1 3.3 11.3 4.8 28.2 22.8 32.8 16.4 4.2 37.9-7.6 35.6-40.7-.8-11.2-15.5-36.1-20.9-40.9-3.8-3.4-13.8 6.5-7.2 22.3 4.5 10.7 1.2 17.2-5.2 9.6-8.7-10.3-4.1-33.4-39.6-30.7-23.8 1.7-22.1 31.1-19.1 45z"/>
      <path class="st0" d="M347.7 252.4l29.3-19.8 17.2 12.1 18.5 27.3 2.7 13.8-29.7 9.6-24.9 16.8-3-39.3 60.4 51.9 29-19.6-4.3-31.3-10-44-24.9 16.8z"/>
      <path class="st1" d="M367.2 275.1c3.1 14.4 14.3 30.5 21.1 16.5 3.3-6.7.5-15.4-2.1-17 6.5-11.7 11.2-1.5 12.9 4.3 3.3 11.3 6.6 27 24.6 31.6 16.4 4.2 37.9-7.6 35.6-40.7-.8-11.2-15.5-36.1-20.9-40.9-3.8-3.4-13.8 6.5-7.2 22.3 4.5 10.7 1.2 17.2-5.2 9.6-8.7-10.3-4.1-33.4-39.6-30.7-24 1.8-22.2 31.1-19.2 45z"/>
    </g>
    <g>
      <path class="st0" d="M217.9 210c3.1 14.4 14.3 30.5 21.1 16.5 3.3-6.7.5-15.4-2.1-17 6.5-11.7 12.9-2.7 14.6 3.1 3.3 11.3 4.8 28.2 22.8 32.8 16.4 4.2 37.9-7.6 35.6-40.7-.8-11.2-15.5-36.1-20.9-40.9-3.8-3.4-13.8 6.5-7.2 22.3 4.5 10.7 1.2 17.2-5.2 9.6-8.7-10.3-4.1-33.4-39.6-30.7-23.9 1.8-22.1 31.1-19.1 45z"/>
      <path class="st0" d="M223.3 170.5l29.2-19.7 17.3 12 18.4 27.3L291 204l-29.8 9.6-24.8 16.8-3.1-39.4 60.5 51.9 29-19.6-4.3-31.3-10-44-24.9 16.8z"/>
      <path class="st2" d="M242.8 193.2c3.1 14.4 14.3 30.5 21.1 16.5 3.3-6.7.5-15.4-2.1-17 6.5-11.7 11.2-1.5 12.9 4.3 3.3 11.3 6.6 27 24.6 31.6 16.4 4.2 37.9-7.6 35.6-40.7-.8-11.2-15.5-36.1-20.9-40.9-3.8-3.4-13.8 6.5-7.2 22.3 4.5 10.7 1.2 17.2-5.2 9.6-8.7-10.3-4.1-33.4-39.6-30.7-24 1.8-22.2 31.2-19.2 45z"/>
    </g>
    <g id="peanuts_8_">
      <path class="st0" d="M814.2 212.5c3.1 14.4 14.3 30.5 21.1 16.5 3.3-6.7.5-15.4-2.1-17 6.5-11.7 12.9-2.7 14.6 3.1 3.3 11.3 4.8 28.2 22.8 32.8 16.4 4.2 37.9-7.6 35.6-40.7-.8-11.2-15.5-36.1-20.9-40.9-3.8-3.4-13.8 6.5-7.2 22.3 4.5 10.7 1.2 17.2-5.2 9.6-8.7-10.3-4.1-33.4-39.6-30.7-23.8 1.7-22.1 31.1-19.1 45z"/>
      <path class="st0" d="M819.6 172.9l29.3-19.7 17.2 12.1 18.5 27.3 2.7 13.8-29.7 9.6-24.9 16.8-3-39.3 60.4 51.8 29-19.5-4.3-31.4-10-43.9-24.9 16.8z"/>
      <path class="st1" d="M839.1 195.7c3.1 14.4 14.3 30.5 21.1 16.5 3.3-6.7.5-15.4-2.1-17 6.5-11.7 11.2-1.5 12.9 4.3 3.3 11.3 6.6 27 24.6 31.6 16.4 4.2 37.9-7.6 35.6-40.7-.8-11.2-15.5-36.1-20.9-40.9-3.8-3.4-13.8 6.5-7.2 22.3 4.5 10.7 1.2 17.2-5.2 9.6-8.7-10.3-4.1-33.4-39.6-30.7-24 1.7-22.2 31.1-19.2 45z"/>
    </g>
    <g id="peanuts_7_">
      <path class="st0" d="M645.5 364.6c3.1 14.4 14.3 30.5 21.1 16.5 3.3-6.7.5-15.4-2.1-17 6.5-11.7 12.9-2.7 14.6 3.1 3.3 11.3 4.8 28.2 22.8 32.8 16.4 4.2 37.9-7.6 35.6-40.7-.8-11.2-15.5-36.1-20.9-40.9-3.8-3.4-13.8 6.5-7.2 22.3 4.5 10.7 1.2 17.2-5.2 9.6-8.7-10.3-4.1-33.4-39.6-30.7-23.9 1.7-22.1 31.1-19.1 45z"/>
      <path class="st0" d="M650.9 325.1l29.2-19.8 17.2 12.1 18.5 27.3 2.7 13.8-29.7 9.6-24.9 16.8-3-39.3 60.4 51.9 29-19.6-4.3-31.3-9.9-44-24.9 16.8z"/>
      <path class="st1" d="M670.3 347.8c3.1 14.4 14.3 30.5 21.1 16.5 3.3-6.7.5-15.4-2.1-17 6.5-11.7 11.2-1.5 12.9 4.3 3.3 11.3 6.6 27 24.6 31.6 16.4 4.2 37.9-7.6 35.6-40.7-.8-11.2-15.5-36.1-20.9-40.9-3.8-3.4-13.8 6.5-7.2 22.3 4.5 10.7 1.2 17.2-5.2 9.6-8.7-10.3-4.1-33.4-39.6-30.7-23.9 1.7-22.1 31.1-19.2 45z"/>
    </g>
    <g id="peanuts_6_">
      <path class="st0" d="M662.1 536.8c14.2-4 29.5-16.3 15.1-22.1-6.9-2.8-15.4.5-16.9 3.2-12.1-5.8-3.5-12.7 2.1-14.8 11.1-4.1 27.8-6.6 31.3-24.8 3.1-16.7-10.1-37.3-43-32.8-11.1 1.5-35 17.8-39.5 23.5-3.2 4 7.4 13.3 22.7 5.7 10.4-5.2 17.1-2.4 9.9 4.6-9.7 9.3-33.1 6.2-28 41.5 3.4 23.6 32.6 19.9 46.3 16z"/>
      <path class="st0" d="M622.2 534l-21.6-27.8 10.9-18 26.1-20.2 13.6-3.6 11.6 29 18.4 23.7-39.1 5.5L690 459l-21.5-27.6-31 6.3-43.3 12.9 18.4 23.7z"/>
      <path d="M643.7 513.1c14.2-4 29.5-16.3 15.1-22.1-6.9-2.8-15.4.5-16.9 3.2-12.1-5.8-2.2-11 3.5-13.1 11.1-4.1 26.5-8.3 29.9-26.5 3.1-16.7-10.1-37.3-43-32.8-11.1 1.5-35 17.8-39.5 23.5-3.2 4 7.4 13.3 22.7 5.7 10.4-5.2 17.1-2.4 9.9 4.6-9.7 9.3-33.1 6.2-28 41.5 3.4 23.6 32.6 19.9 46.3 16z" fill="#f5fcfc"/>
    </g>
    <g id="peanuts_5_">
      <path class="st0" d="M543.4 514.5c14.1 4.3 33.6 2.3 24.7-10.4-4.3-6.1-13.2-8-15.9-6.4-7-11.4 3.9-12.6 9.8-11.3 11.5 2.6 27 9.5 39.8-3.9 11.7-12.3 11.7-36.8-18.3-50.9-10.1-4.7-39.1-4-46-1.6-4.8 1.7-1 15.2 16 17.1 11.6 1.3 15.7 7.3 5.8 9.2-13.2 2.6-31.2-12.7-46.1 19.6-10 21.7 16.6 34.4 30.2 38.6z"/>
      <path class="st0" d="M511.4 490.5l-3.1-35.1 19-9.2 32.8-2.8 13.5 4.3-6.1 30.7 2.6 29.8-35.8-16.5 74.7-27.5-3-34.8-29.5-11.5-43.3-12.6 2.6 29.8z"/>
      <path class="st1" d="M540.8 484.6c14.1 4.3 33.6 2.3 24.7-10.4-4.3-6.1-13.2-8-15.9-6.4-7-11.4 4.1-10.5 10-9.1 11.5 2.6 26.8 7.4 39.6-6.1 11.7-12.3 11.7-36.8-18.3-50.9-10.1-4.7-39.1-4-46-1.6-4.8 1.7-1 15.2 16 17.1 11.6 1.3 15.7 7.3 5.8 9.2-13.2 2.6-31.2-12.7-46.1 19.6-10 21.7 16.6 34.4 30.2 38.6z"/>
    </g>
    <g id="peanuts_4_">
      <path class="st0" d="M752.7 509c14.2-4 29.5-16.3 15.1-22.1-6.9-2.8-15.4.5-16.9 3.2-12.1-5.8-3.5-12.7 2.1-14.8 11.1-4.1 27.8-6.6 31.3-24.8 3.1-16.7-10.1-37.3-43-32.8-11.1 1.5-35 17.8-39.5 23.5-3.2 4 7.4 13.3 22.7 5.7 10.4-5.2 17.1-2.4 9.9 4.6-9.7 9.3-33.1 6.2-28 41.5 3.4 23.6 32.6 19.9 46.3 16z"/>
      <path class="st0" d="M712.8 506.2l-21.6-27.8 11-18 26-20.2 13.7-3.6 11.5 29 18.4 23.7-39.1 5.6 47.9-63.7-21.5-27.6-31 6.4-43.3 12.8 18.4 23.7z"/>
      <path class="st1" d="M734.3 485.3c14.2-4 29.5-16.3 15.1-22.1-6.9-2.8-15.4.5-16.9 3.2-12.1-5.8-2.2-11 3.5-13.1 11.1-4.1 26.5-8.3 29.9-26.5 3.1-16.7-10.1-37.3-43-32.8-11.1 1.5-35 17.8-39.5 23.5-3.2 4 7.4 13.3 22.7 5.7 10.4-5.2 17.1-2.4 9.9 4.6-9.7 9.3-33.1 6.2-28 41.5 3.4 23.6 32.6 19.9 46.3 16z"/>
    </g>
    <g id="peanuts_3_">
      <path class="st0" d="M847 474.1c12.2-8.3 22.7-24.8 7.3-25.8-7.5-.5-14.5 5.4-15 8.4-13.3-1.6-7.4-10.9-2.7-14.7 9.2-7.4 24.3-15.1 21.7-33.5-2.3-16.8-21.5-32.1-51.2-17.4-10 5-27.5 28.1-29.9 34.9-1.7 4.8 11.3 10.3 23.4-1.8 8.2-8.2 15.5-7.7 10.8 1.2-6.2 11.9-29.3 16.5-13.3 48.2 10.6 21.3 37.1 8.5 48.9.5z"/>
      <path class="st0" d="M808.3 484.1l-29.4-19.5 4.6-20.5 18.3-27.4 11.7-7.8 20.2 23.8 25.1 16.6-35.3 17.7 25-75.5-29.1-19.4L792 388l-36.9 26 25 16.6z"/>
      <path class="st1" d="M821.9 457.5c12.2-8.3 22.7-24.8 7.3-25.8-7.5-.5-14.5 5.4-15 8.4-13.3-1.6-5.6-9.7-.9-13.5 9.2-7.4 22.5-16.3 19.9-34.7-2.3-16.8-21.5-32.1-51.2-17.4-10 5-27.5 28.1-29.9 34.9-1.7 4.8 11.3 10.3 23.4-1.8 8.2-8.2 15.5-7.7 10.8 1.2-6.2 11.9-29.3 16.5-13.3 48.2 10.7 21.3 37.2 8.5 48.9.5z"/>
    </g>
    <g id="peanuts_2_">
      <path class="st0" d="M955.6 439.4c4.4-14.1 2.6-33.6-10.2-24.8-6.2 4.2-8.1 13.1-6.6 15.9-11.5 6.9-12.6-4-11.2-9.9 2.7-11.5 9.7-26.9-3.6-39.7-12.2-11.8-36.7-12-51.1 17.9-4.8 10.1-4.3 39-2 45.9 1.6 4.9 15.2 1.1 17.3-15.8 1.4-11.5 7.4-15.6 9.3-5.7 2.5 13.2-12.9 31 19.3 46.2 21.5 10 34.5-16.5 38.8-30z"/>
      <path class="st0" d="M931.3 471.1l-35.2 2.8-9-19-2.6-32.8 4.5-13.4 30.6 6.3 29.9-2.4-16.8 35.7-26.9-74.9-34.9 2.8-11.7 29.3-13.1 43.2 30-2.4z"/>
      <path class="st2" d="M925.6 441.8c4.4-14.1 2.6-33.6-10.2-24.8-6.2 4.2-8.1 13.1-6.6 15.9-11.5 6.9-10.4-4.2-9.1-10.1 2.7-11.5 7.6-26.7-5.8-39.6-12.2-11.8-36.7-12-51.1 17.9-4.8 10.1-4.3 39-2 45.9 1.6 4.9 15.2 1.1 17.3-15.8 1.4-11.5 7.4-15.6 9.3-5.7 2.5 13.2-12.9 31 19.3 46.2 21.7 10 34.6-16.4 38.9-29.9z"/>
    </g>
    <g id="peanuts_1_">
      <path class="st0" d="M687.3 457.9c7.4 12.7 23.1 24.5 25.2 9.1 1-7.4-4.3-14.8-7.3-15.5 2.6-13.1 11.5-6.6 14.9-1.6 6.7 9.7 13.3 25.3 31.9 24.1 16.9-1.1 33.6-19.1 21.1-49.8-4.2-10.4-26-29.4-32.7-32.4-4.7-2.1-11.1 10.5.1 23.4 7.6 8.8 6.6 16-2 10.7-11.5-7.1-14.3-30.4-47.2-16.8-22 9.2-11.2 36.6-4 48.8z"/>
      <path class="st0" d="M680.1 418.7l21.6-27.9 20.1 6.1 26.1 20.2 6.9 12.3-25.2 18.4-18.4 23.7-15.2-36.4 73.6 30.4 21.5-27.6-13.9-28.4-23.2-38.7-18.4 23.7z"/>
      <path class="st2" d="M705.7 434.2c7.4 12.7 23.1 24.5 25.2 9.1 1-7.4-4.3-14.8-7.3-15.5 2.6-13.1 10.1-4.9 13.6.1 6.7 9.7 14.7 23.6 33.2 22.4 16.9-1.1 33.6-19.1 21.1-49.8-4.2-10.4-26-29.4-32.7-32.4-4.7-2.1-11.1 10.5.1 23.4 7.6 8.8 6.6 16-2 10.7-11.5-7.1-14.3-30.4-47.2-16.8-22 9.2-11.2 36.6-4 48.8z"/>
    </g>
    <g id="peanuts">
      <path class="st0" d="M954.6 251c-.7 10.1 3.7 22.8 10.8 14.9 3.4-3.8 3.3-10.1 1.8-11.6 6.5-6.5 9 .7 9.1 4.8 0 8.1-2.2 19.5 8.8 25.9 10 5.9 26.4 2.1 31.2-20.1 1.6-7.5-3.4-26.7-6-31-1.9-3-10.3 1.7-9 13.3.9 7.9-2.4 11.6-5.3 5.3-3.8-8.4 3.6-22.8-20.3-27.7-16-3.3-20.4 16.4-21.1 26.2z"/>
      <path class="st0" d="M965.7 225.9l23-7.5 9.1 11.2 7 21.5-.8 9.7-21.4.7-19.6 6.4 5.4-26.5 30 45.6 22.9-7.4 3.1-21.5 1.7-30.9-19.6 6.4z"/>
      <path class="st2" d="M974.2 244.6c-.7 10.1 3.7 22.8 10.8 14.9 3.4-3.8 3.3-10.1 1.8-11.6 6.5-6.5 7.6 1.1 7.7 5.3 0 8.1-.8 19 10.2 25.5 10 5.9 26.4 2.1 31.2-20.1 1.6-7.5-3.4-26.7-6-31-1.9-3-10.3 1.7-9 13.3.9 7.9-2.4 11.6-5.3 5.3-3.8-8.4 3.6-22.8-20.3-27.7-16-3.3-20.4 16.4-21.1 26.1z"/>
    </g>
  </g>
  <path id="heart_shadow" d="M897.8 107.3s0-.1 0 0c-.2-3.8-.8-7.5-1.6-11.2V96v-.1c-4-17.7-14.9-34.2-32.8-44.6l-26.5-15.6c-17.4-10.2-36.2-17-55.5-20.3-37.4-6.3-76.4.2-110.2 19.7L609 70.9l-61-35.1c-50.9-29.4-113.6-29.4-164.5 0l-27.4 15.8c-19.4 11.2-30.7 29.3-34 48.7v.3c0 .1-.1.2-.1.4s-.1.4-.1.6c-1.3 8.5-8.3 57.2-.3 92.8 2.4 20.7 13.9 40.6 34.6 52.5l252.1 145.4.3-73.9.3.1.2 74.2 253.8-146.4c22.7-13.1 34.4-35.8 35-58.7 5.3-27.7 2.1-62.7-.1-80.3z" opacity=".11"/>
  <g id="heart">
    <path d="M608.2 131.5l-107.3-62a70.208 70.208 0 0 0-70.1 0l-74.6 43c-8.4 4.8-15.2 11-20.6 17.9l-13.4-43.3s-9.3 55-.5 94.1c2.4 20.7 13.9 40.6 34.6 52.5l252.1 145.4.4-112.8-.6-134.8z" fill="#561d2c"/>
    <path d="M897.9 174.6c-.6 22.9-12.3 45.6-35 58.7L609 379.7l-.2-74.2-.1-39 .5-134.5 109.7-63.2c15.7-9.1 34-11.6 51.1-7.5-37.7 109.8-157.1 241.1-159.3 243.5C735.2 206.7 798.9 137 831.1 93.6l32.2 18.9c7.8 4.6 14.2 10.2 19.4 16.7l13.4-46.1v.2c.1.9.8 4.9 1.6 11.1 2.3 17.4 5.5 52.4.2 80.2z" fill="#9e5c7a"/>
    <path fill="#841e36" d="M608.2 379.2l.8.5-.3-113.3z"/>
    <path class="st9" d="M862.9 159.2L610.6 304.7l-1.6.9-.2-.1-.3-.1-252.4-145.7c-26.7-15.4-38.2-44-34.3-70.8 0-.1 0-.2.1-.3 0-.3.1-.5.1-.8 0-.1 0-.2.1-.4v-.3c3.3-19.3 14.6-37.5 34-48.7l27.4-15.8c50.9-29.4 113.6-29.4 164.5 0l61 35.1L671.2 22C705 2.5 744-4 781.3 2.4c0 18.1-4.2 38-11.3 58.7-37.7 109.8-157.1 241.1-159.3 243.5 124.5-98.1 188.2-167.8 220.4-211.2 27.6-37.2 32.2-55.2 32.2-55.2 17.9 10.5 28.8 26.9 32.8 44.6v.2c.8 3.7 1.3 7.4 1.6 11.1 1.6 25.1-10.1 50.8-34.8 65.1z"/>
    <path class="st9" d="M863.3 38.2s-4.6 17.9-32.2 55.2c-32.3 43.4-95.9 113.1-220.4 211.2 2.2-2.4 121.5-133.7 159.3-243.5 7.1-20.7 11.3-40.6 11.3-58.7 19.3 3.3 38.1 10.1 55.5 20.3l26.5 15.5z"/>
    <path d="M863.3 38.2s-4.6 17.9-32.2 55.2c-32.3 43.4-95.9 113.1-220.4 211.2 2.2-2.4 121.5-133.7 159.3-243.5 7.1-20.7 11.3-40.6 11.3-58.7 19.3 3.3 38.1 10.1 55.5 20.3l26.5 15.5z" opacity=".12" fill="#fff"/>
    <path d="M610.7 304.6s-.1 0 0 0c0 0 89.4-230.4 60.5-282.6" fill="none"/>
  </g>
  <g id="packing_above_heart">
    <path class="st0" d="M427.5 327.4c-6.7 13.1-8.1 32.7 5.9 26.1 6.8-3.1 10.2-11.6 9.1-14.5 12.5-4.9 11.7 6.1 9.4 11.7-4.6 10.9-14.1 24.8-3.1 39.8 10.1 13.6 34.2 18 53.3-9.1 6.5-9.1 10.8-37.8 9.7-44.9-.8-5.1-14.8-3.7-19.7 12.7-3.3 11.2-9.9 14.1-10.1 4.1-.2-13.5 17.9-28.4-11.3-48.7-19.5-13.7-36.7 10.2-43.2 22.8z"/>
    <path class="st0" d="M456.7 300.2l35.1 3.1 5.7 20.3-2.9 32.8-6.6 12.4-29.2-11.3-29.9-2.6 22.6-32.4 14 78.3 34.9 3.1 16.4-27 20.1-40.3-29.9-2.7z"/>
    <path class="st2" d="M457.4 330.1c-6.7 13.1-8.1 32.7 5.9 26.1 6.8-3.1 10.2-11.6 9.1-14.5 12.5-4.9 9.6 5.9 7.2 11.5-4.6 10.9-12 25-.9 40 10.1 13.6 34.2 18 53.3-9.1 6.5-9.1 10.8-37.8 9.7-44.9-.8-5.1-14.8-3.7-19.7 12.7-3.3 11.2-9.9 14.1-10.1 4.1-.2-13.5 17.9-28.4-11.3-48.7-19.5-13.7-36.7 10.2-43.2 22.8z"/>
    <g>
      <path class="st0" d="M732.1 327.1c-2.8 14.5 1.2 33.6 12.9 23.5 5.7-4.9 6.6-14 4.8-16.5 10.6-8.2 13 2.6 12.2 8.6-1.4 11.7-6.7 27.8 8 39.1 13.4 10.3 37.8 7.8 48.8-23.5 3.7-10.6-.1-39.3-3.1-45.9-2.1-4.6-15.3.6-15.4 17.7-.1 11.6-5.6 16.3-8.6 6.7-3.9-12.9 9.4-32.3-24.3-43.7-22.6-7.7-32.6 20-35.3 34z"/>
      <path class="st0" d="M752.6 292.8l34.7-6.6 11.1 17.8 6.2 32.4-2.9 13.8-31.1-2.9-29.5 5.7 12.7-37.3 35.1 71.4 34.4-6.6 8.4-30.5 8.1-44.4-29.5 5.7z"/>
      <path class="st2" d="M761.6 321.4c-2.8 14.5 1.2 33.6 12.9 23.5 5.7-4.9 6.6-14 4.8-16.5 10.6-8.2 10.8 3 10.1 9-1.4 11.7-4.6 27.4 10.1 38.7 13.4 10.3 37.8 7.8 48.8-23.5 3.7-10.6-.1-39.3-3.1-45.9-2.1-4.6-15.3.6-15.4 17.7-.1 11.6-5.6 16.3-8.6 6.7-3.9-12.9 9.4-32.3-24.3-43.7-22.7-7.7-32.6 20-35.3 34z"/>
    </g>
  </g>
  <g id="Tape">
    <path class="st12" d="M316.5 406.1V483c-.5 18.5-13 37-37.6 51.2-30.7 17.7-72.9 24.6-112.5 20.6v-77.2l-30.9-5.5v77.2c-13.4-3.5-26-8.4-37-14.8-12.3-7.1-21.5-15.3-27.7-24-6.2-8.7-9.3-18-9.4-27.4v-.1-77.7l175.9-12.1 79.2 12.9z"/>
    <ellipse transform="matrix(1 -.0054 .0054 1 -2.19 1.029)" cx="189" cy="405.3" rx="127.5" ry="73.5" fill="#ededeb"/>
    <linearGradient id="SVGID_1_" gradientUnits="userSpaceOnUse" x1="205.08" y1="526.794" x2="181.673" y2="349.34">
      <stop offset="0" stop-color="#a9a9a9"/>
      <stop offset=".019" stop-color="#bdbfc1"/>
      <stop offset=".134" stop-color="#d4d5d6"/>
      <stop offset=".271" stop-color="#e7e8e8"/>
      <stop offset=".431" stop-color="#f5f5f5"/>
      <stop offset=".631" stop-color="#fdfdfd"/>
      <stop offset="1" stop-color="#fff"/>
    </linearGradient>
    <linearGradient id="SVGID_2_" gradientUnits="userSpaceOnUse" x1="97.457" y1="405.264" x2="280.643" y2="405.264">
      <stop offset="0" stop-color="#a9a9a9"/>
      <stop offset="1" stop-color="#f0f0f0"/>
    </linearGradient>
    <path d="M252.6 368.6c34.9 20.1 34.7 52.8-.4 73.1-35.1 20.2-91.8 20.3-126.7.2-34.9-20.1-34.7-52.8.4-73.1 35.1-20.2 91.8-20.3 126.7-.2z" fill="url(#SVGID_1_)" stroke="url(#SVGID_2_)" stroke-width="3.996" stroke-miterlimit="10"/>
    <path d="M146.2 416.5l8.2 22.6s28.8-13.6 61.3-7.2l3.3-23.6s-47.4-6.1-72.8 8.2z" fill="#656e99"/>
    <linearGradient id="SVGID_3_" gradientUnits="userSpaceOnUse" x1="205.08" y1="526.794" x2="181.673" y2="349.34">
      <stop offset=".37"/>
      <stop offset="1" stop-color="#fff" stop-opacity="0"/>
    </linearGradient>
    <linearGradient id="SVGID_4_" gradientUnits="userSpaceOnUse" x1="97.457" y1="405.264" x2="280.643" y2="405.264">
      <stop offset="0" stop-color="#a9a9a9"/>
      <stop offset="1" stop-color="#f0f0f0"/>
    </linearGradient>
    <path d="M252.6 368.6c34.9 20.1 34.7 52.8-.4 73.1-35.1 20.2-91.8 20.3-126.7.2-34.9-20.1-34.7-52.8.4-73.1 35.1-20.2 91.8-20.3 126.7-.2z" opacity=".36" fill="url(#SVGID_3_)" stroke="url(#SVGID_4_)" stroke-width="3.996" stroke-miterlimit="10"/>
    <path class="st17" d="M152.6 417.3l3.4 9.4c1.3 3.5 3.4 4.5 5.5 3.7 2.4-.8 3.3-2.9 2-6.4l-3.4-9.4 2.1-.7 3.3 9.2c1.7 4.9-.1 7.8-3.5 9-3.2 1.2-6.4.2-8.1-4.7l-3.4-9.3 2.1-.8zM167.7 412.5l2.1-.4 3 14.7 7.1-1.4.4 1.8-9.3 1.8-3.3-16.5zM182.5 410l2 16.7-2.2.3-2-16.7 2.2-.3zM187.8 426.3l-.4-16.8 2.4-.1 5.6 8.4c1.3 1.9 2.3 3.7 3.1 5.4-.3-2.2-.3-4.3-.4-6.9l-.2-7h2l.4 16.8-2.2.1-5.5-8.4c-1.2-1.8-2.4-3.7-3.3-5.5h-.1c.2 2.1.3 4.1.3 6.9l.2 7.2-1.9-.1zM213.3 419.2l-6.5-.6-.6 6 7.3.7-.2 1.8-9.4-.9 1.7-16.7 9.1.9-.2 1.8-6.9-.7-.5 5.3 6.5.6-.3 1.8z"/>
    <path opacity=".33" fill="#a39f88" d="M265.4 463.9l13.5-6.8 1.2 21.9"/>
    <path opacity=".66" fill="#dbdbdb" d="M265.4 463.9v77.2l22 5v-78z"/>
    <path class="st12" d="M166.5 477.7v77.2c-10.6-1-21-2.9-30.9-5.5v-77.2l30.9 5.5zM135.6 549.4z"/>
  </g>
</svg>
