<svg id="Layer_1" data-name="Layer 1" xmlns="http://www.w3.org/2000/svg" class="instagram" viewBox="0 0 39.66 39.65"><defs><style>.cls-1{fill:#010101;}</style></defs><title>instagram</title><path class="cls-1" d="M20.07,9.91A10.17,10.17,0,1,0,30.23,20.08,10.15,10.15,0,0,0,20.07,9.91Zm0,16.78a6.61,6.61,0,1,1,6.6-6.61,6.62,6.62,0,0,1-6.6,6.61ZM33,9.5a2.37,2.37,0,1,1-2.37-2.37A2.37,2.37,0,0,1,33,9.5Zm6.73,2.4c-.15-3.17-.88-6-3.2-8.3S31.42.55,28.24.39,15.16.21,11.88.39s-6,.88-8.3,3.2-3,5.13-3.21,8.3S.19,25,.37,28.25s.88,6,3.21,8.31,5.13,3,8.3,3.2,13.09.19,16.36,0,6-.87,8.31-3.2,3-5.13,3.2-8.31.19-13.07,0-16.35ZM35.52,31.76a6.66,6.66,0,0,1-3.77,3.77c-2.61,1-8.8.8-11.68.8s-9.09.23-11.69-.8a6.69,6.69,0,0,1-3.77-3.77c-1-2.61-.8-8.8-.8-11.68S3.58,11,4.61,8.39A6.72,6.72,0,0,1,8.38,4.62c2.61-1,8.8-.79,11.69-.79s9.08-.23,11.68.79a6.69,6.69,0,0,1,3.77,3.77c1,2.61.8,8.8.8,11.69S36.56,29.16,35.52,31.76Z" transform="translate(-0.23 -0.25)"/>
</svg>

