<svg xmlns="http://www.w3.org/2000/svg" xmlns:xlink="http://www.w3.org/1999/xlink" viewBox="0 0 422.53 640.66"><defs><style>.cls-1,.cls-2,.cls-29,.cls-3,.cls-38,.cls-4,.cls-5,.cls-6{fill:none;}.cls-1,.cls-2,.cls-5{stroke:#020202;}.cls-1,.cls-11,.cls-12,.cls-2,.cls-24,.cls-25,.cls-26,.cls-27,.cls-29,.cls-3,.cls-36,.cls-37,.cls-38,.cls-4,.cls-5,.cls-6,.cls-7,.cls-8{stroke-miterlimit:10;}.cls-1{stroke-width:0.27px;}.cls-2{stroke-width:0.25px;}.cls-3{stroke:#873889;}.cls-3,.cls-4,.cls-5,.cls-6{stroke-width:0.75px;}.cls-4{stroke:#de21e8;}.cls-6{stroke:#88398a;}.cls-11,.cls-24,.cls-25,.cls-26,.cls-29,.cls-7,.cls-8{stroke:#231f20;}.cls-11,.cls-24,.cls-25,.cls-26,.cls-7,.cls-8{stroke-width:0.15px;}.cls-7{fill:url(#linear-gradient);}.cls-8{fill:url(#linear-gradient-2);}.cls-9{fill:#dbe1e0;}.cls-10{fill:#c6d0ce;}.cls-11{fill:url(#linear-gradient-3);}.cls-12{fill:#231f20;stroke:#000;stroke-width:0.15px;}.cls-13{fill:url(#linear-gradient-4);}.cls-14{fill:url(#linear-gradient-5);}.cls-15{fill:url(#linear-gradient-6);}.cls-16{fill:url(#linear-gradient-7);}.cls-17{fill:url(#linear-gradient-8);}.cls-18{fill:url(#linear-gradient-9);}.cls-19{fill:url(#linear-gradient-10);}.cls-20{fill:url(#linear-gradient-11);}.cls-21{fill:url(#linear-gradient-12);}.cls-22{fill:url(#linear-gradient-13);}.cls-23{fill:url(#linear-gradient-14);}.cls-24{fill:url(#linear-gradient-15);}.cls-25{fill:url(#linear-gradient-16);}.cls-26{fill:url(#linear-gradient-17);}.cls-27,.cls-36,.cls-37{stroke:#010202;}.cls-27{fill:url(#linear-gradient-18);}.cls-28{fill:url(#linear-gradient-19);}.cls-29,.cls-36,.cls-37{stroke-width:0.55px;}.cls-30{fill:#c3996c;}.cls-31{fill:url(#linear-gradient-20);}.cls-32{fill:url(#linear-gradient-21);}.cls-33{fill:url(#linear-gradient-22);}.cls-34{fill:url(#linear-gradient-23);}.cls-35{fill:#ac8663;}.cls-36{fill:url(#linear-gradient-24);}.cls-37{fill:url(#linear-gradient-25);}.cls-38{stroke:#774c23;stroke-linecap:round;stroke-width:0.25px;}.cls-39{fill:url(#linear-gradient-26);}.cls-40{fill:url(#linear-gradient-27);}.cls-41{fill:url(#linear-gradient-28);}.cls-42{fill:url(#linear-gradient-29);}.cls-43{fill:#a98361;}.cls-44{fill:url(#linear-gradient-30);}.cls-45{fill:url(#linear-gradient-31);}.cls-46{fill:#b59171;}.cls-47,.cls-48,.cls-49{opacity:0.61;}.cls-47{fill:url(#linear-gradient-32);}.cls-48{fill:url(#linear-gradient-33);}.cls-49{fill:url(#linear-gradient-34);}</style><linearGradient id="linear-gradient" x1="308.89" y1="540.37" x2="352.88" y2="540.37" gradientUnits="userSpaceOnUse"><stop offset="0.09" stop-color="#58595b"/><stop offset="0.3" stop-color="#525355"/><stop offset="0.58" stop-color="#424244"/><stop offset="0.62" stop-color="#404041"/><stop offset="0.99" stop-color="#231f20"/></linearGradient><linearGradient id="linear-gradient-2" x1="308.46" y1="541.46" x2="346.18" y2="541.46" gradientUnits="userSpaceOnUse"><stop offset="0.09" stop-color="#404041"/><stop offset="0.35" stop-color="#3b3a3b"/><stop offset="0.71" stop-color="#2b292a"/><stop offset="0.86" stop-color="#231f20"/></linearGradient><linearGradient id="linear-gradient-3" x1="321.21" y1="541.56" x2="331.61" y2="541.56" xlink:href="#linear-gradient-2"/><linearGradient id="linear-gradient-4" x1="292.75" y1="585.5" x2="374.97" y2="585.5" gradientUnits="userSpaceOnUse"><stop offset="0.35" stop-color="#f8b8b1"/><stop offset="0.49" stop-color="#f48e85"/><stop offset="0.66" stop-color="#f1645b"/><stop offset="0.79" stop-color="#ef4a40"/><stop offset="0.86" stop-color="#ee4036"/></linearGradient><linearGradient id="linear-gradient-5" x1="310.63" y1="402.44" x2="337.19" y2="402.44" gradientUnits="userSpaceOnUse"><stop offset="0" stop-color="#f8b8b1"/><stop offset="0.04" stop-color="#f7a7a0"/><stop offset="0.14" stop-color="#f48880"/><stop offset="0.24" stop-color="#f26e65"/><stop offset="0.35" stop-color="#f05950"/><stop offset="0.48" stop-color="#ef4b41"/><stop offset="0.63" stop-color="#ee4339"/><stop offset="0.86" stop-color="#ee4036"/></linearGradient><linearGradient id="linear-gradient-6" x1="310.63" y1="496.32" x2="337.19" y2="496.32" xlink:href="#linear-gradient-5"/><linearGradient id="linear-gradient-7" x1="293.07" y1="546.37" x2="320.7" y2="593.83" gradientUnits="userSpaceOnUse"><stop offset="0" stop-color="#cecbcb"/><stop offset="0.02" stop-color="#b3b0b0"/><stop offset="0.07" stop-color="#8d8a8a"/><stop offset="0.11" stop-color="#6c6969"/><stop offset="0.16" stop-color="#514e4e"/><stop offset="0.21" stop-color="#3d393a"/><stop offset="0.27" stop-color="#2e2a2b"/><stop offset="0.34" stop-color="#262223"/><stop offset="0.44" stop-color="#231f20"/></linearGradient><linearGradient id="linear-gradient-8" x1="516.43" y1="180.63" x2="691.71" y2="481.66" gradientTransform="translate(-269.37 298.12)" xlink:href="#linear-gradient-7"/><linearGradient id="linear-gradient-9" x1="462.97" y1="21.04" x2="638.24" y2="322.07" gradientTransform="translate(-219.14 479.36)" xlink:href="#linear-gradient-7"/><linearGradient id="linear-gradient-10" x1="442.12" y1="-12.03" x2="617.39" y2="288.99" gradientTransform="translate(-163.69 494.23)" xlink:href="#linear-gradient-7"/><linearGradient id="linear-gradient-11" x1="529.02" y1="137.71" x2="704.3" y2="438.74" gradientTransform="translate(-242.71 319.6)" xlink:href="#linear-gradient-7"/><linearGradient id="linear-gradient-12" x1="315.26" y1="450.4" x2="346.63" y2="450.4" gradientUnits="userSpaceOnUse"><stop offset="0.35" stop-color="#f8b8b1"/><stop offset="0.43" stop-color="#f8b3ac"/><stop offset="0.52" stop-color="#f6a39c"/><stop offset="0.64" stop-color="#f48a82"/><stop offset="0.75" stop-color="#f1675e"/><stop offset="0.86" stop-color="#ee4036"/></linearGradient><linearGradient id="linear-gradient-13" x1="279.3" y1="469.37" x2="314.73" y2="470.45" xlink:href="#linear-gradient-12"/><linearGradient id="linear-gradient-14" x1="315.68" y1="492.26" x2="320.54" y2="492.26" gradientUnits="userSpaceOnUse"><stop offset="0" stop-color="#f8b8b1"/><stop offset="0.13" stop-color="#f8b3ac"/><stop offset="0.3" stop-color="#f6a39c"/><stop offset="0.48" stop-color="#f48a82"/><stop offset="0.68" stop-color="#f1675e"/><stop offset="0.86" stop-color="#ee4036"/></linearGradient><linearGradient id="linear-gradient-15" x1="252.14" y1="573.15" x2="296.13" y2="573.15" xlink:href="#linear-gradient"/><linearGradient id="linear-gradient-16" x1="251.71" y1="574.24" x2="289.42" y2="574.24" xlink:href="#linear-gradient-2"/><linearGradient id="linear-gradient-17" x1="264.15" y1="574.94" x2="274.55" y2="574.94" xlink:href="#linear-gradient-2"/><linearGradient id="linear-gradient-18" x1="-359.32" y1="492.03" x2="-359.32" y2="492.03" gradientTransform="translate(380.6 -45.66) rotate(53.46)" gradientUnits="userSpaceOnUse"><stop offset="0" stop-color="#c3996b"/><stop offset="0.36" stop-color="#c1976a"/><stop offset="0.52" stop-color="#ba9165"/><stop offset="0.64" stop-color="#ad865d"/><stop offset="0.74" stop-color="#9b7652"/><stop offset="0.83" stop-color="#846243"/><stop offset="0.91" stop-color="#674930"/><stop offset="0.98" stop-color="#462c1b"/><stop offset="1" stop-color="#3b2314"/></linearGradient><linearGradient id="linear-gradient-19" x1="296.54" y1="173.32" x2="346.09" y2="173.32" gradientUnits="userSpaceOnUse"><stop offset="0.33" stop-color="#a87c4f"/><stop offset="0.41" stop-color="#a1764b"/><stop offset="0.53" stop-color="#8d6640"/><stop offset="0.68" stop-color="#6b4b2e"/><stop offset="0.84" stop-color="#3e2516"/><stop offset="0.85" stop-color="#3b2314"/></linearGradient><linearGradient id="linear-gradient-20" x1="298.52" y1="70.24" x2="387.03" y2="57.31" gradientUnits="userSpaceOnUse"><stop offset="0.23" stop-color="#8a5d3b"/><stop offset="0.55" stop-color="#885b3a"/><stop offset="0.69" stop-color="#815636"/><stop offset="0.79" stop-color="#744d30"/><stop offset="0.88" stop-color="#624027"/><stop offset="0.96" stop-color="#4b2f1c"/><stop offset="1" stop-color="#3b2314"/></linearGradient><linearGradient id="linear-gradient-21" x1="299.31" y1="42.97" x2="381.14" y2="42.97" gradientTransform="matrix(1, 0, 0, 1, 0, 0)" xlink:href="#linear-gradient-18"/><linearGradient id="linear-gradient-22" x1="346.98" y1="201.97" x2="386.47" y2="201.97" gradientUnits="userSpaceOnUse"><stop offset="0.36" stop-color="#a87c4f"/><stop offset="0.46" stop-color="#a3784c"/><stop offset="0.59" stop-color="#936b44"/><stop offset="0.73" stop-color="#795636"/><stop offset="0.89" stop-color="#553822"/><stop offset="0.99" stop-color="#3b2314"/></linearGradient><linearGradient id="linear-gradient-23" x1="374.71" y1="37.09" x2="377.68" y2="93.91" gradientUnits="userSpaceOnUse"><stop offset="0.29" stop-color="#a87c4f"/><stop offset="0.54" stop-color="#a67a4e"/><stop offset="0.66" stop-color="#9e744a"/><stop offset="0.75" stop-color="#916a43"/><stop offset="0.83" stop-color="#7f5b39"/><stop offset="0.9" stop-color="#67472c"/><stop offset="0.96" stop-color="#4a2f1c"/><stop offset="0.99" stop-color="#3b2314"/></linearGradient><linearGradient id="linear-gradient-24" x1="184.45" y1="195.69" x2="184.45" y2="195.69" xlink:href="#linear-gradient-18"/><linearGradient id="linear-gradient-25" x1="218.15" y1="178.18" x2="218.15" y2="178.18" xlink:href="#linear-gradient-18"/><linearGradient id="linear-gradient-26" x1="30.5" y1="301.17" x2="116.97" y2="346" gradientUnits="userSpaceOnUse"><stop offset="0" stop-color="#a87c4f"/><stop offset="0.16" stop-color="#a3784c"/><stop offset="0.37" stop-color="#936b44"/><stop offset="0.6" stop-color="#7a5636"/><stop offset="0.84" stop-color="#573a23"/><stop offset="1" stop-color="#3b2314"/></linearGradient><linearGradient id="linear-gradient-27" x1="129.01" y1="642.26" x2="129.09" y2="578.06" gradientTransform="matrix(1, 0, 0, -1, -0.53, 919.97)" gradientUnits="userSpaceOnUse"><stop offset="0" stop-color="#a87c4f"/><stop offset="0.38" stop-color="#a67a4e"/><stop offset="0.55" stop-color="#9f744a"/><stop offset="0.68" stop-color="#926a43"/><stop offset="0.78" stop-color="#805b39"/><stop offset="0.88" stop-color="#69482d"/><stop offset="0.96" stop-color="#4d311e"/><stop offset="1" stop-color="#3b2314"/></linearGradient><linearGradient id="linear-gradient-28" x1="65.39" y1="567.18" x2="75.44" y2="659.86" gradientTransform="matrix(1, 0, 0, -1, -0.53, 919.97)" gradientUnits="userSpaceOnUse"><stop offset="0.05" stop-color="#a87c4f"/><stop offset="0.12" stop-color="#a2774c"/><stop offset="0.22" stop-color="#906942"/><stop offset="0.33" stop-color="#745133"/><stop offset="0.45" stop-color="#4c311d"/><stop offset="0.5" stop-color="#3b2314"/></linearGradient><linearGradient id="linear-gradient-29" x1="128.84" y1="370.49" x2="126.32" y2="280.59" gradientUnits="userSpaceOnUse"><stop offset="0.05" stop-color="#a87c4f"/><stop offset="0.18" stop-color="#a3784c"/><stop offset="0.35" stop-color="#936b44"/><stop offset="0.53" stop-color="#795636"/><stop offset="0.73" stop-color="#553822"/><stop offset="0.85" stop-color="#3b2314"/></linearGradient><linearGradient id="linear-gradient-30" x1="290.64" y1="527.55" x2="378.23" y2="572.96" xlink:href="#linear-gradient-26"/><linearGradient id="linear-gradient-31" x1="390.52" y1="416.03" x2="390.6" y2="351.04" xlink:href="#linear-gradient-27"/><linearGradient id="linear-gradient-32" x1="386.29" y1="550.35" x2="392.43" y2="550.35" gradientUnits="userSpaceOnUse"><stop offset="0" stop-color="#70c9c8"/><stop offset="0.22" stop-color="#6fc6c7"/><stop offset="0.38" stop-color="#6bbdc3"/><stop offset="0.52" stop-color="#64adbe"/><stop offset="0.66" stop-color="#5a96b5"/><stop offset="0.78" stop-color="#4d79ab"/><stop offset="0.9" stop-color="#3e559e"/><stop offset="1" stop-color="#2e3191"/></linearGradient><linearGradient id="linear-gradient-33" x1="390.91" y1="613.56" x2="397.06" y2="613.56" xlink:href="#linear-gradient-32"/><linearGradient id="linear-gradient-34" x1="321.94" y1="524.88" x2="395.89" y2="524.88" gradientUnits="userSpaceOnUse"><stop offset="0.38" stop-color="#70c9c8"/><stop offset="0.52" stop-color="#6fc6c7"/><stop offset="0.62" stop-color="#6abdc3"/><stop offset="0.71" stop-color="#62adbd"/><stop offset="0.79" stop-color="#5896b4"/><stop offset="0.87" stop-color="#4a79a8"/><stop offset="0.95" stop-color="#39559a"/><stop offset="1" stop-color="#2b388f"/></linearGradient></defs><title>PackingGraphic</title><g id="Pulse"><path class="cls-1" d="M180.06,309.14" transform="translate(-0.53 -0.84)"/><path class="cls-1" d="M216.06,250.36" transform="translate(-0.53 -0.84)"/><path class="cls-2" d="M248.09,238" transform="translate(-0.53 -0.84)"/><path class="cls-3" d="M108.16,307.22l103.7-59.87a21.26,21.26,0,0,0,4.8-4.8,1.79,1.79,0,0,1,1.76-.64c1.53-.57,2.89-4.34,2.89-4.34.42-1.12,1-.4,1-.4l1.53,3.18c.55,1.38,2,.19,2,.19.91-1.42.78-7.87.78-7.87.16-5.3.34-5,1.23-15,.3-1.53,1.15-1.14,1.15-1.14.69.46,1,2.19,1,2.19-.28-.81.14-.91,3.87,15.69a63.89,63.89,0,0,0,1.87,8,2.92,2.92,0,0,0,.61,1.1c.57.56.88-.72.88-.72a36.92,36.92,0,0,0,1.75-8.67c0-1,1-.78,1-.78h1.25a1,1,0,0,0,1-1.13,48.62,48.62,0,0,1,1.29-7.37c.24-.73.82-.57.82-.57,1.16,1.55,2.34,6.11,2.34,6.11a1.27,1.27,0,0,0,.59.81c.4.14,1.2-.49,1.2-.49.94-.61,1.86-1.1,1.86-1.1,1.65-1.29,2.85-5.72,2.85-5.72a1.41,1.41,0,0,1,1.15-1.26l103.7-59.87" transform="translate(-0.53 -0.84)"/><path class="cls-4" d="M252.82,465.23s-4.42-1.78-5.33-3.18c0,0-.6-1-1.16-1.13a4.16,4.16,0,0,0-1.67.11c-1.53-.57-2.88-4.34-2.88-4.34-.42-1.12-1-.4-1-.4l-1.53,3.17c-.55,1.39-2,.2-2,.2-.91-1.43-.78-7.87-.78-7.87-.17-5.3-.34-5-1.24-15-.29-1.53-1.15-1.14-1.15-1.14-.68.46-1,2.19-1,2.19.29-.81-.13-.91-3.87,15.69a65.56,65.56,0,0,1-1.86,8,2.92,2.92,0,0,1-.61,1.1c-.57.56-.89-.72-.89-.72a36.67,36.67,0,0,1-1.74-8.67c0-1-1-.78-1-.78H221.8a1,1,0,0,1-1-1.12,48.24,48.24,0,0,0-1.3-7.37c-.24-.73-.81-.57-.81-.57-1.17,1.54-2.34,6.1-2.34,6.1a1.31,1.31,0,0,1-.59.82c-.4.14-1.21-.5-1.21-.5a5.83,5.83,0,0,0-1.85-1c-1.54-1.22-1.9-6.84-1.9-6.84a2.53,2.53,0,0,0-.51-1.47" transform="translate(-0.53 -0.84)"/><path class="cls-5" d="M248.61,468.23" transform="translate(-0.53 -0.84)"/><path class="cls-5" d="M216.59,455.87" transform="translate(-0.53 -0.84)"/><path class="cls-6" d="M356.52,525.09l-103.7-59.86a21.48,21.48,0,0,1-4.8-4.8,1.79,1.79,0,0,0-1.77-.64c-1.53-.57-2.88-4.34-2.88-4.34-.42-1.12-1-.41-1-.41l-1.53,3.18c-.55,1.38-2,.19-2,.19-.91-1.42-.78-7.86-.78-7.86-.17-5.3-.34-5-1.24-15-.29-1.54-1.15-1.14-1.15-1.14-.68.45-1,2.18-1,2.18.29-.8-.13-.91-3.87,15.7a65.56,65.56,0,0,1-1.86,8,3.07,3.07,0,0,1-.61,1.1c-.57.56-.89-.72-.89-.72a36.8,36.8,0,0,1-1.74-8.68c0-1-1-.78-1-.78h-1.25a1,1,0,0,1-1-1.12,48,48,0,0,0-1.3-7.37c-.23-.73-.81-.58-.81-.58-1.17,1.55-2.34,6.11-2.34,6.11a1.35,1.35,0,0,1-.59.82c-.4.13-1.21-.5-1.21-.5-.94-.6-1.85-1.1-1.85-1.1-1.66-1.28-2.85-5.71-2.85-5.71a1.4,1.4,0,0,0-1.15-1.26l-103.7-59.87" transform="translate(-0.53 -0.84)"/><path class="cls-4" d="M211.86,247.35s4.42-1.77,5.33-3.18c0,0,.6-1,1.16-1.12a4.11,4.11,0,0,1,1.66.11c1.54-.57,2.89-4.34,2.89-4.34.42-1.12,1-.41,1-.41l1.53,3.18c.55,1.38,2,.19,2,.19.91-1.42.78-7.86.78-7.86.16-5.3.34-5,1.23-15,.3-1.54,1.15-1.14,1.15-1.14.69.45,1,2.18,1,2.18-.28-.8.14-.91,3.87,15.7a66.38,66.38,0,0,0,1.87,8,3.07,3.07,0,0,0,.61,1.1c.57.56.89-.72.89-.72a37.37,37.37,0,0,0,1.74-8.68c0-1,1-.78,1-.78h1.26a1,1,0,0,0,1-1.12,48.37,48.37,0,0,1,1.29-7.37c.24-.73.82-.58.82-.58,1.17,1.55,2.34,6.11,2.34,6.11a1.31,1.31,0,0,0,.59.82c.4.13,1.2-.5,1.2-.5a6.09,6.09,0,0,1,1.86-1c1.54-1.21,1.89-6.84,1.89-6.84a2.54,2.54,0,0,1,.52-1.47" transform="translate(-0.53 -0.84)"/></g><g id="Boxes_Dolly" data-name="Boxes/Dolly"><path class="cls-7" d="M352.88,538.45c0-12.72-8.44-23-18.86-23a16,16,0,0,0-7.86,2.09h0l-.35.22c-.26.16-.52.32-.77.49l-4.4,2.76c-6.89,3.43-11.74,11.69-11.74,21.34,0,12.72,8.44,23,18.86,23a16.17,16.17,0,0,0,9.17-2.9l4.9-3C348.34,555.81,352.88,547.78,352.88,538.45Z" transform="translate(-0.53 -0.84)"/><ellipse class="cls-8" cx="327.32" cy="541.46" rx="18.86" ry="23.04"/><ellipse class="cls-9" cx="327.82" cy="541.16" rx="14.49" ry="17.7"/><path class="cls-10" d="M328.2,524.19a12.35,12.35,0,0,1,6.65,2,12.05,12.05,0,0,0-3.61-.55c-8,0-14.49,7.92-14.49,17.7,0,6.84,3.18,12.78,7.84,15.73-6.26-2-10.88-8.9-10.88-17.15C313.71,532.12,320.2,524.19,328.2,524.19Z" transform="translate(-0.53 -0.84)"/><ellipse class="cls-11" cx="326.41" cy="541.56" rx="5.2" ry="6.35"/><path class="cls-12" d="M289.11,388.43l0,0a4.62,4.62,0,0,0-2.43-.66c-2.25,0-4.07,1.5-4.07,3.34a3.22,3.22,0,0,0,1.84,2.8h0l19.75,11.41.11-8.13Z" transform="translate(-0.53 -0.84)"/><path class="cls-12" d="M323.7,368.33l0,0a4.56,4.56,0,0,0-2.42-.66c-2.25,0-4.07,1.49-4.07,3.34a3.25,3.25,0,0,0,1.84,2.8h0l19.76,11.41.1-8.13Z" transform="translate(-0.53 -0.84)"/><path class="cls-13" d="M292.75,592.18,321,608.51a7.14,7.14,0,0,0,7.15,0l45.43-26.23a2.73,2.73,0,0,0,0-4.72l-27.77-16Z" transform="translate(-0.53 -0.84)"/><polygon class="cls-14" points="310.64 412.61 337.18 397.29 337.19 392.28 310.63 407.72 310.64 412.61"/><polygon class="cls-15" points="310.64 506.49 337.18 491.17 337.19 486.16 310.63 501.6 310.64 506.49"/><path class="cls-16" d="M275.63,575.1l50.89-29a2.13,2.13,0,0,0,1.08-2l-.05-.94a2.13,2.13,0,0,0-3.22-1.72l-50.84,30a2.1,2.1,0,0,0-1.05,1.85h0A2.13,2.13,0,0,0,275.63,575.1Z" transform="translate(-0.53 -0.84)"/><rect class="cls-17" x="290.93" y="537.44" width="1.82" height="36.42" transform="translate(477.85 -44.45) rotate(45)"/><rect class="cls-18" x="287.69" y="559.09" width="1.82" height="36.42" transform="translate(886.06 333.64) rotate(94.46)"/><rect class="cls-19" x="322.29" y="540.88" width="1.82" height="36.42" transform="translate(905.2 279.52) rotate(94.46)"/><rect class="cls-20" x="330.18" y="515.99" width="1.82" height="36.42" transform="translate(474.18 -78.49) rotate(45)"/><path class="cls-21" d="M345.76,569.77V367.06h0a26.73,26.73,0,0,0-2.37-9.94l-6.15-13.49a26.73,26.73,0,0,0-16.56-14.49,28.27,28.27,0,0,0-4.58-1,3.45,3.45,0,0,0-1.68,3,3.38,3.38,0,0,0,.25,1.27,26.22,26.22,0,0,1,4.16,2,26.59,26.59,0,0,1,10.57,11.82l6.14,13.5a26.57,26.57,0,0,1,2.14,14.68V569.6a2.83,2.83,0,0,0,0,.29c0,1.52,1.82,2.75,4.06,2.75s4.07-1.23,4.07-2.75Z" transform="translate(-0.53 -0.84)"/><path class="cls-22" d="M311.16,589.2V386.48h0a26.72,26.72,0,0,0-2.37-9.93l-6.15-13.5a26.91,26.91,0,0,0-21.13-15.46,3.42,3.42,0,0,0-1.69,3,3.34,3.34,0,0,0,.25,1.27,28.06,28.06,0,0,1,4.16,2,26.59,26.59,0,0,1,10.57,11.82l6.14,13.5a26.41,26.41,0,0,1,2.14,7.36,26.86,26.86,0,0,1,0,7.33V589a2.64,2.64,0,0,0,0,.28c0,1.52,1.82,2.75,4.07,2.75s4.06-1.23,4.06-2.75Z" transform="translate(-0.53 -0.84)"/><polygon class="cls-23" points="315.68 577.81 320.54 575.05 320.54 406.71 316.73 409.09 315.68 577.81"/><path class="cls-24" d="M296.13,571.23c0-12.73-8.45-23-18.86-23a16,16,0,0,0-7.86,2.09h0l-.36.22-.77.49-4.4,2.76c-6.88,3.43-11.73,11.69-11.73,21.33,0,12.73,8.44,23,18.86,23a16.11,16.11,0,0,0,9.17-2.91l4.89-3C291.59,588.59,296.13,580.56,296.13,571.23Z" transform="translate(-0.53 -0.84)"/><ellipse class="cls-25" cx="270.56" cy="574.24" rx="18.86" ry="23.04"/><ellipse class="cls-9" cx="270.77" cy="574.54" rx="14.49" ry="17.7"/><path class="cls-10" d="M271.15,557.57a12.41,12.41,0,0,1,6.65,2,11.86,11.86,0,0,0-3.62-.56c-8,0-14.49,7.93-14.49,17.7,0,6.85,3.18,12.79,7.84,15.73-6.25-2-10.87-8.89-10.87-17.15C256.66,565.5,263.14,557.57,271.15,557.57Z" transform="translate(-0.53 -0.84)"/><ellipse class="cls-26" cx="269.35" cy="574.94" rx="5.2" ry="6.35"/><path class="cls-27" d="M-228.66-41.36" transform="translate(-0.53 -0.84)"/><polygon class="cls-28" points="346.1 168.73 297.63 140.58 296.54 177.39 346.04 206.06 346.1 168.73"/><polygon class="cls-29" points="386.73 191.98 386.73 89.04 298.9 38.22 298.89 143.02 386.73 191.98"/><polygon class="cls-30" points="385.4 89.86 387.04 88.62 386.73 191.98 384.37 193.33 297.57 143.85 297.58 39.05 385.4 89.86"/><polygon class="cls-31" points="299.21 37.81 387.04 88.63 385.4 89.87 297.58 39.05 299.21 37.81"/><polygon class="cls-32" points="348.75 66.63 299.31 37.86 331.7 19.31 381.14 48.08 348.75 66.63"/><polygon class="cls-30" points="347.71 68.22 298.27 39.45 294.73 0 344.68 29.22 347.71 68.22"/><polygon class="cls-33" points="384.37 193.33 347.04 171.98 346.98 209.04 386.47 231.95 384.37 193.33"/><polygon class="cls-34" points="404.38 54.85 364.58 31.85 347.48 65.78 386.96 88.69 404.38 54.85"/><polygon class="cls-35" points="384.24 193.3 346.63 171.79 330.88 206.2 368.29 228.07 384.24 193.3"/><polygon class="cls-35" points="346.52 171.75 297.02 143.36 261.01 159.84 311.14 188.73 346.52 171.75"/><path class="cls-36" d="M333.21,219.05" transform="translate(-0.53 -0.84)"/><path class="cls-37" d="M367.35,235.7" transform="translate(-0.53 -0.84)"/><polygon class="cls-30" points="383.61 51.68 346.3 30.34 347.92 68.19 385.4 89.94 383.61 51.68"/><line class="cls-38" x1="346.54" y1="105.25" x2="346.54" y2="111.17"/><line class="cls-38" x1="346.54" y1="116.54" x2="346.54" y2="122.46"/><line class="cls-38" x1="346.54" y1="93.95" x2="346.54" y2="99.87"/><line class="cls-38" x1="346.54" y1="82.14" x2="346.54" y2="88.06"/><line class="cls-38" x1="346.54" y1="70.84" x2="346.54" y2="76.76"/><line class="cls-38" x1="346.54" y1="151.88" x2="346.54" y2="157.8"/><line class="cls-38" x1="346.54" y1="163.17" x2="346.54" y2="169.09"/><line class="cls-38" x1="346.54" y1="140.58" x2="346.54" y2="146.5"/><line class="cls-38" x1="346.54" y1="128.77" x2="346.54" y2="134.69"/><polygon class="cls-39" points="32.74 376.38 96.72 339.98 96.72 261.44 32.56 298.13 32.74 376.38"/><polygon class="cls-40" points="96.62 261.35 160.6 297.83 160.55 376.38 96.45 339.69 96.62 261.35"/><polygon id="TopPanel" class="cls-41" points="32.51 298.1 96.54 334.59 96.62 412.91 32.33 376.36 32.51 298.1"/><polygon id="BottomPanel" class="cls-42" points="96.32 413.18 160.58 376.52 160.52 297.98 96.14 334.88 96.32 413.18"/><polygon class="cls-30" points="3.73 314.58 67.71 350.98 96.49 334.56 32.51 298.1 3.73 314.58"/><polygon class="cls-43" points="96.65 261.51 160.63 298 189.48 281.42 125.5 244.96 96.65 261.51"/><polygon class="cls-30" points="0 279.66 64.44 242.48 96.72 261.46 32.62 298.12 0 279.66"/><polygon class="cls-43" points="96.55 334.65 160.99 297.48 193.26 316.45 129.17 353.12 96.55 334.65"/><polygon class="cls-44" points="292.91 603.73 357.72 566.85 357.66 487.29 292.73 524.46 292.91 603.73"/><polygon class="cls-45" points="357.72 487.37 422.53 524.25 422.47 603.82 357.54 566.65 357.72 487.37"/><polygon class="cls-35" points="357.72 640.66 422.53 603.79 422.47 524.22 357.49 561.3 357.72 640.66"/><polygon class="cls-46" points="292.67 524.43 357.49 561.3 357.72 640.66 292.5 603.7 292.67 524.43"/><polygon class="cls-30" points="292.67 524.43 324.18 506.34 388.99 543.18 357.49 561.3 292.67 524.43"/><polygon class="cls-30" points="324.18 506.34 357.65 487.39 422.46 524.24 388.99 543.18 324.18 506.34"/><polygon class="cls-47" points="391.11 542.03 386.29 544.72 386.29 558.66 390.94 554.95 391.11 542.03"/><polygon class="cls-48" points="395.52 605.31 390.94 608.14 390.91 621.8 395.74 618.97 395.52 605.31"/><polygon class="cls-49" points="326.06 505.04 391.11 542.03 386.29 544.72 321.94 507.56 326.06 505.04"/></g></svg>