<svg id="Unit2" xmlns="http://www.w3.org/2000/svg" viewBox="0 0 3962.9 2866.2">
  <style>
    .st0{fill:#adadaf}.st1{fill:#101928}.st2{fill:#fdfefe}.st5{fill:#faf8d0}.st6{fill:#eaedd4}.st7{fill:#242323}.st8{fill:#fdc996}.st9{fill:#e2e2c3}.st10{fill:#818273}.st11{fill:#d1d4bf}.st12{fill:#dbdcbb}.st13{fill:#e8d5b2}.st32{fill:#c6b599}
  </style>
  <g id="Road">
    <path class="st0" d="M2576.7 1226.5l-682.3-392.9-1502.2 872.7 2062.7 1159.9 1508-864.5z"/>
    <path class="st1" d="M2309.9 2783.6l1496-869.1-23.5-13.1-691.5-388-1496.3 869.7z"/>
    <path class="st2" d="M2088.9 2496.2l35.8 20.1 153.5-84.4-37.1-23.6zM2460.1 2280.2l35.8 20.1 153.5-84.4-37.1-23.6zM2822.8 2069.3l35.8 20.1 153.5-84.4-37.1-23.6zM3146.8 1880.3l35.8 20.1 153.5-84.4-37.1-23.6z"/>
  </g>
  <linearGradient id="SVGID_1_" gradientUnits="userSpaceOnUse" x1="2431.79" y1="1148.52" x2="2326.94" y2="1068.98">
    <stop offset="0" stop-color="#bcbec0"/>
    <stop offset=".11" stop-color="#afb1b3"/>
    <stop offset=".32" stop-color="#8d8e90"/>
    <stop offset=".61" stop-color="#565758"/>
    <stop offset=".96" stop-color="#0a0a0a"/>
    <stop offset="1"/>
  </linearGradient>
  <path fill="url(#SVGID_1_)" d="M2437.4 1221.8V1048l-131.6 109.7z"/>
  <linearGradient id="SVGID_2_" gradientUnits="userSpaceOnUse" x1="2519.24" y1="1598.4" x2="1696.64" y2="1106.81">
    <stop offset="0" stop-color="#fff"/>
    <stop offset=".08" stop-color="#f6f6f6"/>
    <stop offset=".21" stop-color="#dcdcdc"/>
    <stop offset=".37" stop-color="#b3b3b3"/>
    <stop offset=".56" stop-color="#7a7a7a"/>
    <stop offset=".78" stop-color="#323232"/>
    <stop offset=".91"/>
  </linearGradient>
  <path fill="url(#SVGID_2_)" d="M2437.4 1221.8l-543.3 316.4-415-233.7 550-281.8z"/>
  <path class="st5" d="M2438.5 814.1l-542.6 313.3v61.3l542.6-313.9z"/>
  <path class="st6" d="M1785.1 1635.6v-580.5L785.2 474.9v597.3z"/>
  <path class="st7" d="M1785.1 1635.6l.6-36.1 38.9 59.4z"/>
  <path class="st8" d="M2536.1 1201.2l-.1-36 39.5 59.3z"/>
  <path class="st9" d="M1894.2 1189.8l6.8 2.5v-61.2l-6.8-2.6z"/>
  <path class="st10" d="M33.9 911.4l755.8-438.7 999.9 580.2-755.8 438.7z"/>
  <path class="st11" d="M1788.3 1054.5l-751.5 434.4v580.5l751.4-433.9z"/>
  <path class="st6" d="M1037.2 2069.8v-580.5L37.2 909.1v597.3z"/>
  <g id="Closed_Door_1_">
    <path class="st8" d="M1690.6 1263.5l-542.7 313.3V1996l542.7-313.3z"/>
    <path class="st5" d="M1690.6 1248.3l-542.7 313.3v61.3l542.7-313.9z"/>
    <path class="st12" d="M1697.3 1250.8l-542.6 313.3v61.3l542.6-313.8z"/>
    <path class="st7" d="M1037.2 2069.8l.5-36.1 38.9 59.4z"/>
    <path class="st9" d="M1147.9 1622.9l6.8 2.5v-61.3l-6.8-2.5z"/>
    <path class="st5" d="M1697.3 1250.8l-6.7-2.5-542.7 313.3 6.8 2.5zM1690.6 1356l-6.3-3-536.4 309.9 6.8 2.5zM1690.9 1427.4l-6.4-2.9-536.3 309.8 6.8 2.5zM1690.9 1498.6l-6.4-3-536.3 309.8 6.8 2.6zM1690.9 1570.3l-6.4-3-536.3 309.8 6.8 2.6z"/>
    <path class="st13" d="M1154.7 1665.4v65.3l-6.8 3.8v-71.6z"/>
    <path class="st9" d="M1147.9 1562.4v28.5l6.8 2.5v-28.5z"/>
    <path class="st13" d="M1147.9 1662.5l6.8-3.8v-32.6l-6.8-2.5zM1154.7 1737l-.1 64.9-6.4 4-.3-71.4z"/>
    <path class="st13" d="M1154.7 1807.9v65.2l-6.8 3.9v-71.7z"/>
  </g>
  <linearGradient id="SVGID_3_" gradientUnits="userSpaceOnUse" x1="1475.84" y1="1783.58" x2="1442.5" y2="1731.94">
    <stop offset=".02" stop-color="#fff" stop-opacity="0"/>
    <stop offset=".23" stop-color="#9e9b9b" stop-opacity=".23"/>
    <stop offset=".47" stop-color="#555352" stop-opacity=".51"/>
    <stop offset=".67" stop-color="#2c2b2a" stop-opacity=".73"/>
    <stop offset=".82" stop-color="#101010" stop-opacity=".9"/>
    <stop offset=".91" stop-color="#010101"/>
  </linearGradient>
  <path d="M1480.1 1743.9l-44.3 25.6c-4.1 2.4-9.4.9-11.8-3.1-2.4-4.1-.9-9.4 3.1-11.8l44.3-25.6c4.1-2.4 9.4-.9 11.8 3.1 2.4 4.2 1 9.4-3.1 11.8z" fill="url(#SVGID_3_)" stroke="#010101" stroke-width=".89" stroke-miterlimit="10"/>
  <path class="st10" d="M37.2 909.1l755.9-438.7 999.9 580.2-755.8 438.7z"/>
  <path fill="#545554" d="M2541 616.4L1541 36.2 785.2 474.9l.5.3L36.1 910.3l1000 580.1 755.8-438.7z" id="Roof_1_"/>
  <g id="RoofRails_1_">
    <linearGradient id="SVGID_4_" gradientUnits="userSpaceOnUse" x1="1917.81" y1="2144.79" x2="1883.3" y2="2091.33" gradientTransform="matrix(12.3833 8.0608 -7.8595 -3.4595 -4915.84 -7614.71)">
      <stop offset=".02" stop-color="#fff" stop-opacity="0"/>
      <stop offset=".23" stop-color="#9e9b9b" stop-opacity=".23"/>
      <stop offset=".47" stop-color="#555352" stop-opacity=".51"/>
      <stop offset=".67" stop-color="#2c2b2a" stop-opacity=".73"/>
      <stop offset=".82" stop-color="#101010" stop-opacity=".9"/>
      <stop offset=".91" stop-color="#010101"/>
    </linearGradient>
    <path d="M2454.8 662L1477.2 80.8c-4.9-2.9-6.5-9.2-3.6-14.1s9.2-6.5 14.1-3.6l977.6 581.1c4.9 2.9 6.5 9.2 3.6 14.1a10.3 10.3 0 0 1-14.1 3.7z" fill="url(#SVGID_4_)"/>
    <linearGradient id="SVGID_5_" gradientUnits="userSpaceOnUse" x1="1954.92" y1="2214.98" x2="1920.4" y2="2161.52" gradientTransform="matrix(12.3833 8.0608 -7.8595 -3.4595 -4915.84 -7614.71)">
      <stop offset=".02" stop-color="#fff" stop-opacity="0"/>
      <stop offset=".23" stop-color="#9e9b9b" stop-opacity=".23"/>
      <stop offset=".47" stop-color="#555352" stop-opacity=".51"/>
      <stop offset=".67" stop-color="#2c2b2a" stop-opacity=".73"/>
      <stop offset=".82" stop-color="#101010" stop-opacity=".9"/>
      <stop offset=".91" stop-color="#010101"/>
    </linearGradient>
    <path d="M2362.6 718.2L1385 137.1c-4.9-2.9-6.5-9.2-3.6-14.1s9.2-6.5 14.1-3.6l977.6 581.1a10.3 10.3 0 0 1-10.5 17.7z" fill="url(#SVGID_5_)"/>
    <linearGradient id="SVGID_6_" gradientUnits="userSpaceOnUse" x1="1994.78" y1="2290.95" x2="1960.26" y2="2237.49" gradientTransform="matrix(12.3833 8.0608 -7.8595 -3.4595 -4915.84 -7614.71)">
      <stop offset=".02" stop-color="#fff" stop-opacity="0"/>
      <stop offset=".23" stop-color="#9e9b9b" stop-opacity=".23"/>
      <stop offset=".47" stop-color="#555352" stop-opacity=".51"/>
      <stop offset=".67" stop-color="#2c2b2a" stop-opacity=".73"/>
      <stop offset=".82" stop-color="#101010" stop-opacity=".9"/>
      <stop offset=".91" stop-color="#010101"/>
    </linearGradient>
    <path d="M2259.1 776.7l-977.6-581.1c-4.9-2.9-6.5-9.2-3.6-14.1s9.2-6.5 14.1-3.6L2269.6 759c4.9 2.9 6.5 9.2 3.6 14.1s-9.2 6.5-14.1 3.6z" fill="url(#SVGID_6_)"/>
    <linearGradient id="SVGID_7_" gradientUnits="userSpaceOnUse" x1="2031.88" y1="2361.14" x2="1997.37" y2="2307.69" gradientTransform="matrix(12.3833 8.0608 -7.8595 -3.4595 -4915.84 -7614.71)">
      <stop offset=".02" stop-color="#fff" stop-opacity="0"/>
      <stop offset=".23" stop-color="#9e9b9b" stop-opacity=".23"/>
      <stop offset=".47" stop-color="#555352" stop-opacity=".51"/>
      <stop offset=".67" stop-color="#2c2b2a" stop-opacity=".73"/>
      <stop offset=".82" stop-color="#101010" stop-opacity=".9"/>
      <stop offset=".91" stop-color="#010101"/>
    </linearGradient>
    <path d="M2166.9 832.9l-977.6-581.1c-4.9-2.9-6.5-9.2-3.6-14.1s9.2-6.5 14.1-3.6l977.6 581.1a10.3 10.3 0 0 1-10.5 17.7z" fill="url(#SVGID_7_)"/>
    <linearGradient id="SVGID_8_" gradientUnits="userSpaceOnUse" x1="2071.26" y1="2436.64" x2="2036.74" y2="2383.18" gradientTransform="matrix(12.3833 8.0608 -7.8595 -3.4595 -4915.84 -7614.71)">
      <stop offset=".02" stop-color="#fff" stop-opacity="0"/>
      <stop offset=".23" stop-color="#9e9b9b" stop-opacity=".23"/>
      <stop offset=".47" stop-color="#555352" stop-opacity=".51"/>
      <stop offset=".67" stop-color="#2c2b2a" stop-opacity=".73"/>
      <stop offset=".82" stop-color="#101010" stop-opacity=".9"/>
      <stop offset=".91" stop-color="#010101"/>
    </linearGradient>
    <path d="M2061.1 889.2L1083.6 308c-4.9-2.9-6.5-9.2-3.6-14.1s9.2-6.5 14.1-3.6l977.6 581.1c4.9 2.9 6.5 9.2 3.6 14.1-2.9 5-9.3 6.6-14.2 3.7z" fill="url(#SVGID_8_)"/>
    <linearGradient id="SVGID_9_" gradientUnits="userSpaceOnUse" x1="2108.36" y1="2506.83" x2="2073.84" y2="2453.37" gradientTransform="matrix(12.3833 8.0608 -7.8595 -3.4595 -4915.84 -7614.71)">
      <stop offset=".02" stop-color="#fff" stop-opacity="0"/>
      <stop offset=".23" stop-color="#9e9b9b" stop-opacity=".23"/>
      <stop offset=".47" stop-color="#555352" stop-opacity=".51"/>
      <stop offset=".67" stop-color="#2c2b2a" stop-opacity=".73"/>
      <stop offset=".82" stop-color="#101010" stop-opacity=".9"/>
      <stop offset=".91" stop-color="#010101"/>
    </linearGradient>
    <path d="M1968.9 945.4L991.3 364.3c-4.9-2.9-6.5-9.2-3.6-14.1s9.2-6.5 14.1-3.6l977.6 581.1c4.9 2.9 6.5 9.2 3.6 14.1s-9.2 6.5-14.1 3.6z" fill="url(#SVGID_9_)"/>
    <linearGradient id="SVGID_10_" gradientUnits="userSpaceOnUse" x1="2150.22" y1="2586.81" x2="2115.71" y2="2533.35" gradientTransform="matrix(12.3833 8.0608 -7.8595 -3.4595 -4915.84 -7614.71)">
      <stop offset=".02" stop-color="#fff" stop-opacity="0"/>
      <stop offset=".23" stop-color="#9e9b9b" stop-opacity=".23"/>
      <stop offset=".47" stop-color="#555352" stop-opacity=".51"/>
      <stop offset=".67" stop-color="#2c2b2a" stop-opacity=".73"/>
      <stop offset=".82" stop-color="#101010" stop-opacity=".9"/>
      <stop offset=".91" stop-color="#010101"/>
    </linearGradient>
    <path d="M1858.7 1006.2L881.1 425c-4.9-2.9-6.5-9.2-3.6-14.1s9.2-6.5 14.1-3.6l977.6 581.1c4.9 2.9 6.5 9.2 3.6 14.1-2.9 5-9.2 6.6-14.1 3.7z" fill="url(#SVGID_10_)"/>
    <linearGradient id="SVGID_11_" gradientUnits="userSpaceOnUse" x1="2187.17" y1="2656.98" x2="2152.66" y2="2603.53" gradientTransform="matrix(12.3833 8.0608 -7.8595 -3.4595 -4915.84 -7614.71)">
      <stop offset=".02" stop-color="#fff" stop-opacity="0"/>
      <stop offset=".23" stop-color="#9e9b9b" stop-opacity=".23"/>
      <stop offset=".47" stop-color="#555352" stop-opacity=".51"/>
      <stop offset=".67" stop-color="#2c2b2a" stop-opacity=".73"/>
      <stop offset=".82" stop-color="#101010" stop-opacity=".9"/>
      <stop offset=".91" stop-color="#010101"/>
    </linearGradient>
    <path d="M1764.8 1061.3L787.2 480.1c-4.9-2.9-6.5-9.2-3.6-14.1s9.2-6.5 14.1-3.6l977.6 581.1c4.9 2.9 6.5 9.2 3.6 14.1-2.9 5-9.3 6.6-14.1 3.7z" fill="url(#SVGID_11_)"/>
    <linearGradient id="SVGID_12_" gradientUnits="userSpaceOnUse" x1="2227.18" y1="2732.97" x2="2192.67" y2="2679.52" gradientTransform="matrix(12.3833 8.0608 -7.8595 -3.4595 -4915.84 -7614.71)">
      <stop offset=".02" stop-color="#fff" stop-opacity="0"/>
      <stop offset=".23" stop-color="#9e9b9b" stop-opacity=".23"/>
      <stop offset=".47" stop-color="#555352" stop-opacity=".51"/>
      <stop offset=".67" stop-color="#2c2b2a" stop-opacity=".73"/>
      <stop offset=".82" stop-color="#101010" stop-opacity=".9"/>
      <stop offset=".91" stop-color="#010101"/>
    </linearGradient>
    <path d="M1663 1120.9L685.4 539.8c-4.9-2.9-6.5-9.2-3.6-14.1s9.2-6.5 14.1-3.6l977.6 581.1a10.3 10.3 0 0 1-10.5 17.7z" fill="url(#SVGID_12_)"/>
    <linearGradient id="SVGID_13_" gradientUnits="userSpaceOnUse" x1="2263.74" y1="2802.63" x2="2229.23" y2="2749.17" gradientTransform="matrix(12.3833 8.0608 -7.8595 -3.4595 -4915.84 -7614.71)">
      <stop offset=".02" stop-color="#fff" stop-opacity="0"/>
      <stop offset=".23" stop-color="#9e9b9b" stop-opacity=".23"/>
      <stop offset=".47" stop-color="#555352" stop-opacity=".51"/>
      <stop offset=".67" stop-color="#2c2b2a" stop-opacity=".73"/>
      <stop offset=".82" stop-color="#101010" stop-opacity=".9"/>
      <stop offset=".91" stop-color="#010101"/>
    </linearGradient>
    <path d="M1568.2 1174.6L590.6 593.5c-4.9-2.9-6.5-9.2-3.6-14.1s9.2-6.5 14.1-3.6l977.6 581.1c4.9 2.9 6.5 9.2 3.6 14.1s-9.2 6.5-14.1 3.6z" fill="url(#SVGID_13_)"/>
    <linearGradient id="SVGID_14_" gradientUnits="userSpaceOnUse" x1="2303.66" y1="2878.66" x2="2269.15" y2="2825.2" gradientTransform="matrix(12.3833 8.0608 -7.8595 -3.4595 -4915.84 -7614.71)">
      <stop offset=".02" stop-color="#fff" stop-opacity="0"/>
      <stop offset=".23" stop-color="#9e9b9b" stop-opacity=".23"/>
      <stop offset=".47" stop-color="#555352" stop-opacity=".51"/>
      <stop offset=".67" stop-color="#2c2b2a" stop-opacity=".73"/>
      <stop offset=".82" stop-color="#101010" stop-opacity=".9"/>
      <stop offset=".91" stop-color="#010101"/>
    </linearGradient>
    <path d="M1465 1233.4L487.4 652.3c-4.9-2.9-6.5-9.2-3.6-14.1s9.2-6.5 14.1-3.6l977.6 581.1c4.9 2.9 6.5 9.2 3.6 14.1s-9.2 6.5-14.1 3.6z" fill="url(#SVGID_14_)"/>
    <linearGradient id="SVGID_15_" gradientUnits="userSpaceOnUse" x1="2340.76" y1="2948.85" x2="2306.25" y2="2895.39" gradientTransform="matrix(12.3833 8.0608 -7.8595 -3.4595 -4915.84 -7614.71)">
      <stop offset=".02" stop-color="#fff" stop-opacity="0"/>
      <stop offset=".23" stop-color="#9e9b9b" stop-opacity=".23"/>
      <stop offset=".47" stop-color="#555352" stop-opacity=".51"/>
      <stop offset=".67" stop-color="#2c2b2a" stop-opacity=".73"/>
      <stop offset=".82" stop-color="#101010" stop-opacity=".9"/>
      <stop offset=".91" stop-color="#010101"/>
    </linearGradient>
    <path d="M1372.8 1289.6L395.2 708.5c-4.9-2.9-6.5-9.2-3.6-14.1s9.2-6.5 14.1-3.6l977.6 581.1c4.9 2.9 6.5 9.2 3.6 14.1s-9.2 6.5-14.1 3.6z" fill="url(#SVGID_15_)"/>
    <linearGradient id="SVGID_16_" gradientUnits="userSpaceOnUse" x1="2380.24" y1="3023.93" x2="2345.73" y2="2970.48" gradientTransform="matrix(12.3833 8.0608 -7.8595 -3.4595 -4915.84 -7614.71)">
      <stop offset=".02" stop-color="#fff" stop-opacity="0"/>
      <stop offset=".23" stop-color="#9e9b9b" stop-opacity=".23"/>
      <stop offset=".47" stop-color="#555352" stop-opacity=".51"/>
      <stop offset=".67" stop-color="#2c2b2a" stop-opacity=".73"/>
      <stop offset=".82" stop-color="#101010" stop-opacity=".9"/>
      <stop offset=".91" stop-color="#010101"/>
    </linearGradient>
    <path d="M1271.6 1348.1L294 767c-4.9-2.9-6.5-9.2-3.6-14.1s9.2-6.5 14.1-3.6l977.6 581.1a10.3 10.3 0 0 1-10.5 17.7z" fill="url(#SVGID_16_)"/>
    <linearGradient id="SVGID_17_" gradientUnits="userSpaceOnUse" x1="2419.62" y1="3099.43" x2="2385.11" y2="3045.98" gradientTransform="matrix(12.3833 8.0608 -7.8595 -3.4595 -4915.84 -7614.71)">
      <stop offset=".02" stop-color="#fff" stop-opacity="0"/>
      <stop offset=".23" stop-color="#9e9b9b" stop-opacity=".23"/>
      <stop offset=".47" stop-color="#555352" stop-opacity=".51"/>
      <stop offset=".67" stop-color="#2c2b2a" stop-opacity=".73"/>
      <stop offset=".82" stop-color="#101010" stop-opacity=".9"/>
      <stop offset=".91" stop-color="#010101"/>
    </linearGradient>
    <path d="M1165.8 1404.4L188.3 823.2c-4.9-2.9-6.5-9.2-3.6-14.1s9.2-6.5 14.1-3.6l977.6 581.1c4.9 2.9 6.5 9.2 3.6 14.1-2.9 5-9.3 6.6-14.2 3.7z" fill="url(#SVGID_17_)"/>
    <linearGradient id="SVGID_18_" gradientUnits="userSpaceOnUse" x1="2456.72" y1="3169.62" x2="2422.21" y2="3116.17" gradientTransform="matrix(12.3833 8.0608 -7.8595 -3.4595 -4915.84 -7614.71)">
      <stop offset=".02" stop-color="#fff" stop-opacity="0"/>
      <stop offset=".23" stop-color="#9e9b9b" stop-opacity=".23"/>
      <stop offset=".47" stop-color="#555352" stop-opacity=".51"/>
      <stop offset=".67" stop-color="#2c2b2a" stop-opacity=".73"/>
      <stop offset=".82" stop-color="#101010" stop-opacity=".9"/>
      <stop offset=".91" stop-color="#010101"/>
    </linearGradient>
    <path d="M1073.6 1460.6L96 879.5c-4.9-2.9-6.5-9.2-3.6-14.1s9.2-6.5 14.1-3.6l977.6 581.1c4.9 2.9 6.5 9.2 3.6 14.1s-9.2 6.5-14.1 3.6z" fill="url(#SVGID_18_)"/>
  </g>
  <g id="OpenFront_1_">
    <path class="st11" d="M1788.3 1054.5l-1.3 577.3 106.9-61.4v-416.6l542.7-313.3v416.6l104.3-60.3V616.4z"/>
    <path class="st12" d="M2445.3 816.6L1901 1130.9v61.4l544.3-314.9z"/>
    <path class="st5" d="M2445.3 816.6l-6.8-2.5-544.3 314.3 6.8 2.5z"/>
    <path class="st9" d="M1894.2 1128.4v29.4l6.8 2.5v-29.4z"/>
  </g>
  <g id="OpenDoor_2_">
    <path class="st8" d="M2422.5 890.5L1893.9 1195v36.1l122.3 100.7 558.1-321.5z"/>
    <linearGradient id="SVGID_19_" gradientUnits="userSpaceOnUse" x1="2301.15" y1="1179.13" x2="2267.81" y2="1127.5">
      <stop offset=".02" stop-color="#fff" stop-opacity="0"/>
      <stop offset=".23" stop-color="#9e9b9b" stop-opacity=".23"/>
      <stop offset=".47" stop-color="#555352" stop-opacity=".51"/>
      <stop offset=".67" stop-color="#2c2b2a" stop-opacity=".73"/>
      <stop offset=".82" stop-color="#101010" stop-opacity=".9"/>
      <stop offset=".91" stop-color="#010101"/>
    </linearGradient>
    <path d="M2305.4 1139.5l-44.3 25.6c-4.1 2.4-9.4.9-11.8-3.1-2.4-4.1-.9-9.4 3.1-11.8l44.3-25.6c4.1-2.4 9.4-.9 11.8 3.1 2.4 4.1 1 9.4-3.1 11.8z" fill="url(#SVGID_19_)" stroke="#010101" stroke-width=".89" stroke-miterlimit="10"/>
    <path class="st5" d="M2492.9 946.9l-1.4 7.5-538.9 323.1 1.1-7.1zM2435.9 901.6l-1.3 7.5-537.5 322.2 1-7.2z"/>
    <path class="st32" d="M1903.3 1228.4l49.9 41.5-1 7.5-55.2-45.4zM1958.8 1273.9l49.9 41.6-1 7.4-55.2-45.4zM1894.1 1221v8.6l2.6 2.1 1.2-7.7z"/>
    <linearGradient id="SVGID_20_" gradientUnits="userSpaceOnUse" x1="2343.07" y1="1252.97" x2="2056.38" y2="762.8">
      <stop offset=".08" stop-color="#f1f2f2"/>
      <stop offset=".15" stop-color="#bcbec0"/>
      <stop offset=".22" stop-color="#58595b"/>
    </linearGradient>
    <path fill="url(#SVGID_20_)" d="M2009.8 1327.1l12.1 10 558.7-322-12.2-9.6z"/>
  </g>
  <g id="Ramp_1_">
    <linearGradient id="SVGID_21_" gradientUnits="userSpaceOnUse" x1="2496.89" y1="1928.35" x2="2084.45" y2="1255.05">
      <stop offset=".23" stop-color="#fff"/>
      <stop offset=".92"/>
    </linearGradient>
    <path fill="url(#SVGID_21_)" d="M1785.7 1599.5l750.3-434.3 39.5 59.3-750.9 434.4z"/>
    <linearGradient id="SVGID_22_" gradientUnits="userSpaceOnUse" x1="1731.31" y1="2380.61" x2="1341.05" y2="1680.59">
      <stop offset=".23" stop-color="#fff"/>
      <stop offset=".92"/>
    </linearGradient>
    <path fill="url(#SVGID_22_)" d="M1037.1 2032.6l751.5-434.9 39.5 59.3-751.5 436.1z"/>
  </g>
  <g id="Billboard_1_">
    <linearGradient id="SVGID_23_" gradientUnits="userSpaceOnUse" x1="2910.41" y1="842.24" x2="3234.73" y2="538.6">
      <stop offset=".09" stop-color="#fff"/>
      <stop offset=".16" stop-color="#f6f6f6"/>
      <stop offset=".29" stop-color="#dfdfdf"/>
      <stop offset=".44" stop-color="#b9b9b9"/>
      <stop offset=".62" stop-color="#858585"/>
      <stop offset=".82" stop-color="#424242"/>
      <stop offset="1"/>
    </linearGradient>
    <path d="M3215.7 1029.4l-.7-351c0-9.2-4.9-17.8-12.9-22.4l-350.7-203a25.9 25.9 0 0 0-26.5.3l-.6-.3-39.8 23.8.1.1c-3.7 2.1-6.8 5.1-9.1 8.7l-.5-.7.5.8c-2.4 3.9-3.9 8.5-3.9 13.7v355.9c0 9.4 5 18 13.2 22.6L3136 1076c9 5.1 19.1 4.1 26.7-.8l.2.2 38.4-22.7a25.7 25.7 0 0 0 14.4-23.3z" fill="url(#SVGID_23_)"/>
    <path class="st0" d="M3180.8 1381.1c0-111.1-165.9-201.2-370.5-201.2-90.9 0-174.2 17.8-238.7 47.3l513.5 286.6-38.2 22.2c81.9-37 133.9-92.7 133.9-154.9z"/>
    <path class="st1" d="M2575.5 1224.5l-6.3 3.6c2.3-1.1 4.6-2.2 7-3.3l-.7-.3z"/>
    <path fill="#52301f" d="M2984.9 1280.8V847.9H2966v443.8z"/>
    <path fill="#8d4e2a" d="M2947 1281.3V848.5h19v443.8z"/>
    <linearGradient id="SVGID_24_" gradientUnits="userSpaceOnUse" x1="2769.79" y1="903.74" x2="3328.48" y2="555.82">
      <stop offset=".09" stop-color="#e6e7e8"/>
      <stop offset=".28" stop-color="#e2e3e4"/>
      <stop offset=".5" stop-color="#d7d8da"/>
      <stop offset=".73" stop-color="#c4c6c8"/>
      <stop offset=".97" stop-color="#aaacaf"/>
      <stop offset="1" stop-color="#a7a9ac"/>
    </linearGradient>
    <path d="M3174 703.1l.7 351c0 19.9-21.3 32.4-38.6 22.6l-351.4-198.1a26.02 26.02 0 0 1-13.2-22.6V500.1c0-20 21.6-32.4 38.9-22.4l350.7 203c7.9 4.6 12.9 13.2 12.9 22.4z" fill="url(#SVGID_24_)"/>
  </g>
  <linearGradient id="SVGID_25_" gradientUnits="userSpaceOnUse" x1="1462.22" y1="1875.56" x2="1196.12" y2="1412.67">
    <stop offset=".08" stop-color="#f1f2f2"/>
    <stop offset=".15" stop-color="#bcbec0"/>
    <stop offset=".22" stop-color="#58595b"/>
  </linearGradient>
  <path fill="url(#SVGID_25_)" d="M1147.9 1968.1l542.7-313.3v-21.3l-543.1 313.8z"/>
</svg>
