<svg id="Layer_1" data-name="Layer 1" xmlns="http://www.w3.org/2000/svg" viewBox="0 0 11.36 9.23"><defs><style>.cls-1{fill:#010101;}</style></defs><title>twitter</title><path class="cls-1" d="M10.2,2.32c0,.1,0,.21,0,.31A6.58,6.58,0,0,1,3.59,9.25,6.61,6.61,0,0,1,0,8.21a5.24,5.24,0,0,0,.56,0,4.64,4.64,0,0,0,2.89-1A2.31,2.31,0,0,1,1.29,5.62a2.12,2.12,0,0,0,.44,0,2.43,2.43,0,0,0,.61-.08A2.32,2.32,0,0,1,.47,3.3v0a2.33,2.33,0,0,0,1.06.29,2.31,2.31,0,0,1-1-1.94A2.32,2.32,0,0,1,.8.45,6.64,6.64,0,0,0,5.6,2.89a3.29,3.29,0,0,1,0-.54A2.32,2.32,0,0,1,7.87,0,2.35,2.35,0,0,1,9.58.76,4.67,4.67,0,0,0,11.05.2a2.32,2.32,0,0,1-1,1.28,4.66,4.66,0,0,0,1.34-.36,4.94,4.94,0,0,1-1.17,1.2Z" transform="translate(-0.01 -0.02)"/></svg>