<svg id="Layer_1" data-name="Layer 1" xmlns="http://www.w3.org/2000/svg" viewBox="0 0 11.37 11.37"><defs><style>.cls-1{fill:#010101;}</style></defs><title>instagram</title><path class="cls-1" d="M5.71,2.81A2.92,2.92,0,1,0,8.62,5.72,2.91,2.91,0,0,0,5.71,2.81Zm0,4.81A1.9,1.9,0,1,1,7.6,5.72a1.9,1.9,0,0,1-1.89,1.9ZM9.42,2.69a.68.68,0,0,1-1.36,0,.68.68,0,1,1,1.36,0Zm1.93.69A3.33,3.33,0,0,0,10.43,1,3.37,3.37,0,0,0,8.05.08C7.11,0,4.3,0,3.36.08A3.36,3.36,0,0,0,1,1,3.37,3.37,0,0,0,.06,3.38c0,.94,0,3.75,0,4.69A3.39,3.39,0,0,0,1,10.45a3.43,3.43,0,0,0,2.38.92c.94.05,3.75.05,4.69,0a3.37,3.37,0,0,0,2.38-.92,3.35,3.35,0,0,0,.92-2.38c.06-.94.06-3.75,0-4.69ZM10.14,9.07a2,2,0,0,1-1.08,1.09,12.8,12.8,0,0,1-3.35.22,12.78,12.78,0,0,1-3.35-.22A1.93,1.93,0,0,1,1.28,9.07a12.36,12.36,0,0,1-.23-3.35,12.42,12.42,0,0,1,.23-3.35A1.94,1.94,0,0,1,2.36,1.29a12.8,12.8,0,0,1,3.35-.23,12.8,12.8,0,0,1,3.35.23,1.91,1.91,0,0,1,1.08,1.08,12.42,12.42,0,0,1,.23,3.35A12.36,12.36,0,0,1,10.14,9.07Z" transform="translate(-0.02 -0.04)"/></svg>